<svg id="Layer_1" data-name="Layer 1" xmlns="http://www.w3.org/2000/svg" viewBox="0 0 1942.79 2479.85">
    <defs>
        <style>
            .cls-1 {
                fill: #9a9aff;
            }
        </style>
    </defs>
    <path class="cls-1"
        d="M1806.62,2054.21c16.56-13.35,36.35-17.77,56.77-19.7,11.93-1.13,21.21-6.55,29.81-14.26,14.22-12.74,21.37-29.14,24.44-47.43,4.08-24.29,2.51-48.61-1.26-72.8-2.25-14.42-5.06-28.75-7.72-43.65,18.74-5,17-20,16-34.88,11.1-.93,18.82-6,23.48-15.55.59-1.19,2.28-2,3.65-2.62,7.6-3.21,11.54-9.33,13.5-16.92,1.64-6.35,3.69-12.7,4.34-19.17,1.28-12.87,4-26.08-4.49-37.93-.7-1-.45-3.15.12-4.42,3.62-8,6.77-16.39,14.91-21.05,6.65-3.8,10.21-9.74,13.17-16.46,7.76-17.61,9.75-36.21,8.63-55-.92-15.54-3.19-31-5.31-46.47-.74-5.38.8-8.49,5.2-11.69,15.49-11.24,29.71-24,40.68-39.84,16.17-23.37,24-48.59,15.81-77-3.53-12.19-8.7-23.43-18.35-32.16-9-8.17-19.62-9.51-30.68-6.13s-16,12-18.5,22.8c-1.89,8-.26,15.39,1.56,23,.75,3.15,1.11,7-.08,9.86-3.38,8-6.86,16.24-11.69,23.46-21.81,32.61-46.64,62.71-76.69,88.17-17.31,14.67-36.3,26.48-57.93,34-14.45,5-28,4.17-41.73-2.4a103.28,103.28,0,0,1-43.5-38.84c-12.6-20.13-24.37-40.79-36-61.52-12.63-22.55-27-43.73-47.33-60a125.5,125.5,0,0,0-26-16.37c-23.66-10.73-48.6-10.5-73.6-5.73a19.88,19.88,0,0,1-12.52-1.12c-17.52-7.52-35.26-7.82-52.66.46-11.73,5.58-21.59,13.78-30,23.61-23.81,27.74-39.13,60.19-51.26,94.23-9.7,27.19-24.57,50.49-47.63,68.17-22.52,17.27-47.7,26.81-76.39,26.86a178.39,178.39,0,0,1-46.34-6.19c-40.39-10.73-74.79-31.09-101.39-63.83-11.4-14-19.78-29.38-23.84-47.24a117.48,117.48,0,0,0-9.56-26.3c-6-12-17.44-15.62-30-14.89-11.34.65-16.64,8.88-19.89,18.57-4.59,13.63-4.85,27.66-2.36,41.66,5.24,29.42,17.59,54.63,43.66,71.31a11.45,11.45,0,0,1,5.63,8c1.79,8.78,6.53,16.1,12.41,22.81a73.47,73.47,0,0,1,7.5,10.63c3.88,6.42,7,13.31,11.26,19.47,11.68,17.06,19.39,35.44,22.18,56.09a446.55,446.55,0,0,0,8.47,44.1c3.4,14.2,9.61,27.32,21.25,36.77,5.71,4.64,12.44,8,19,12.21-.7,5-1.94,10.16-2.08,15.39-.27,10.06.82,20,5.85,29,4.56,8.15,11.82,11.9,21.1,11.14a33,33,0,0,0,10.89-2.44c4.74-2.16,8.32-1.11,11.77,2.19,4.66,4.47,9.35,8.91,14.36,13.68.41-1.25,1-2.11.87-2.81-1.64-7.87-3.38-15.72-5.18-23.94l6.73-.46,8.28,7.71c-4.15,26.62-8.34,53.59-12.52,80.46a7.16,7.16,0,0,1-2.29.09,50.92,50.92,0,0,1-5.12-2.29,206.77,206.77,0,0,1-62.17-49.21c-18.75-21.89-31.82-47.09-42.61-73.56-13.21-32.41-25.72-65.13-39.32-97.38-13.3-31.53-33.67-57.73-62.61-76.62-6.37-4.16-13.37-7.36-20.08-11l-1.23,1.54c3,5.34,6,10.63,8.9,16,12.92,24.38,22.67,50.09,32.3,75.88,12.46,33.37,24.93,66.74,38.08,99.84a274.87,274.87,0,0,0,35.2,62.9c20.56,27.6,46.27,48.4,80.15,57.12,12.63,3.25,25.79,4.38,40.38,6.75,0,7-.09,14.2,0,21.36a136.33,136.33,0,0,0,7,42.33c10.93,32.08,32.19,50.85,68.61,49.51q22-.81,44.1-.86c20.59-.07,38.27,7.42,53.91,20.71,8.55,7.26,17.43,14.37,27,20.2,36.45,22.25,76.27,32.12,119,31.4,40.69-.68,78.81-10.67,112.79-32.93,22.17-14.52,42.66-31.63,63.77-47.75C1789.77,2068.18,1798.1,2061.07,1806.62,2054.21Zm-541.69-203c.67,3.53,1,5.54,1.44,7.62C1260.65,1858.44,1260.65,1858.44,1264.93,1851.2Zm585.65-181.1c-2.61,6-5.14,11.5-7.34,17.1-2.12,5.4-3.9,10.94-6.55,18.46l-21.28-33.4Zm-126,387.79c-28.92,23.79-61.1,41.05-98.11,48.62-44.93,9.18-85.48-1-122.49-27.3-15-10.67-29.92-21.57-45.29-31.74-18.91-12.51-40.27-14.2-62.22-12.66-11.53.81-23.08,1.65-34.62,1.64-14.87,0-25.22-8-28.31-22.51a172.94,172.94,0,0,1-3.19-44.59c1.82-38.35,11.71-75.21,18.94-112.57,5.07-26.19,8-52.57,6.42-79.23a135.15,135.15,0,0,0-16.44-58.17,24.07,24.07,0,0,0-2.14-3c-.15-.19-.59-.16-1.36-.34-.4,2.35-.8,4.67-1.61,9.4-4.54-12.56-7.42-24-18.86-30.28,47.77-4.68,88.68-22.62,119.71-59.22,5,2,9.11,4.5,13.57,5.27,7.2,1.25,14.48.4,20.48-4.42,2.66-2.13,4.9-3.14,8.43-2,10,3.21,17.94-.89,23.74-8.77,3.84-5.21,6.5-11.28,10.09-17.68,8.38.82,14.87,5.43,19.62,12.93,9.44,14.9,13.71,31.35,14.62,48.79.88,16.83,1,33.73,2.59,50.5,1.89,20.17,4.92,40.24,7.53,60.35.23,1.83,1,3.6,2,7.31,4.63-11,8.6-20.44,13-30.87l7.85,12.87a648.34,648.34,0,0,0,9.1-77.32c1.58-25.76-1-51.75,3.76-77.88,9.4,2.72,18.28,3.5,26.72-2.9,7.52,8.63,16.77,8.47,26.55,4.94.94,1.33,2,2.22,2.28,3.31,4.49,15.48,26.09,17.18,36,8.63,2.22-1.92,3.79-4.89,7.81-3.11.77.34,3.38-2.25,4.4-3.93,4.06-6.68,7.79-13.55,11.69-20.33,2-3.44,4.07-6.83,6.52-10.92,5.28,7.65,9.71,14.44,14.51,20.94,8.74,11.83,18.05,23.08,29.26,32.81a112.82,112.82,0,0,0,52.52,26.18c.33,2.32,1,4.44.88,6.52-1.08,28,5.36,54.68,14.19,80.82,10.1,29.89,21.34,59.39,31.64,89.22,9.32,27,13.77,55,15.23,83.59.73,14.21.49,28-4.28,41.43a39.77,39.77,0,0,1-5.08,10c-1.26,1.73-3.86,3.45-5.9,3.51-33.36,1-61.69,14.64-87.18,35C1754,2032.7,1739.55,2045.6,1724.59,2057.89Z"
        transform="translate(-528.6 -260.08)" />
    <path class="cls-1"
        d="M2349,1374.4c8,6.29,17.11,9.15,26.94,9.49,11,.37,19.31-4.71,23.9-14.92s4.69-21.19,3.54-32.2c-2-18.94-11.13-35.09-20.39-51a97.67,97.67,0,0,1-10.34-24.83c-10.68-40.79-22.06-81.4-32.73-122.19-9.66-36.9-18-74.07-18.83-112.48-.13-5.75-1.45-11.48-2.22-17.21l-2.11-.42c-1.9,3.68-4.09,7.25-5.68,11.06-12.61,30.42-18.89,61.93-17.68,95.06a228.46,228.46,0,0,0,12.07,65.15c10.1,29.92,27.56,55.21,49.65,77.43,9.7,9.76,16.51,20.42,14.3,35-.33,2.14.08,4.38-.07,6.57-.71,10.1-1.49,20.21-2.4,32.32-3.23-3.1-5-4.61-6.57-6.35-42.25-47.47-71.14-102.48-91.43-162.31-17.52-51.66-28.22-104.92-35.79-158.8-5.47-38.91-10.18-77.94-14.55-117-5.39-48.07-11-96.09-19.14-143.79-5.75-33.69-16.78-65.34-35.9-93.86-16-23.8-36.32-42.84-62.12-55.72-1.9-.94-4.09-1.32-7.17-2.29,3.35,7.14,5.94,12.81,8.67,18.41a734.13,734.13,0,0,1,62.76,192.75C2174.09,848.88,2180,896,2186.41,943c7.29,53.2,15,106.29,26.34,158.83,16.49,76.53,44.67,148.26,86.34,214.59C2312.8,1338.2,2328.58,1358.29,2349,1374.4Z"
        transform="translate(-528.6 -260.08)" />
    <path class="cls-1"
        d="M686.47,1457.59c.21,0-.57-.25-.88,0-15,13.5-24.23,30.16-26.32,50.29-1.37,13.22,6.7,28.47,17.47,31.58,20.67,6,41,5.31,59-8.29,12.33-9.3,20.07-22.11,26.1-36C774,1467,779,1437.17,782.55,1407c2.23-18.58,3.07-37.37,6-55.83,7.7-49.19,8.85-98.79,10.46-148.36.51-15.9-.87-31.85-1.26-47.78q-1-41.71-1.88-83.44c-.32-16-.77-31.91-.58-47.86.42-37.52,1-75,1.94-112.55.36-13.39,1.9-26.76,3.29-40.1,2.49-23.88,5.66-47.69,7.84-71.59,1.95-21.42,3.32-42.92,4.24-64.42.65-15.17.12-30.39.12-46.55-1.77,1.24-2.66,1.59-3.13,2.25-15,20.68-26.77,43.08-33.89,67.6-10.76,37.07-15.54,75.24-16.6,113.64-1,35.28.53,70.62,1,105.93.08,6.25.32,12.51.67,18.75,1.6,29,4.53,58,4.62,86.93.13,44.39,2.6,88.82-.93,133.19-2,24.56-3,49.22-5.81,73.69-4.6,40.9-10,81.72-15.52,122.51-3,22.07-8.36,43.56-18,63.81-5,10.57-11.2,20.29-20.89,27.21-4,2.84-8.2,6.67-13.55,4.51-6.07-2.44-6.65-8.56-7.55-14.13a14.34,14.34,0,0,1,0-3.76C684.18,1479.63,685.34,1468.56,686.47,1457.59Z"
        transform="translate(-528.6 -260.08)" />
    <path class="cls-1"
        d="M2330.18,696c20.71,25.45,41.66,50.7,59.31,78.49C2411,808.34,2424,845,2427,885.14a241.36,241.36,0,0,1-9.52,88c-10.67,35.58-23.38,70.55-34.78,105.92-4.68,14.5-10.84,28.56-12.18,44.09-2,23-4,46-1.74,69.09.62,6.38.28,13.07,6.24,20.35,2.74-5.52,5-9.52,6.76-13.71,4.51-10.65,8.75-21.41,13.2-32.08,20.22-48.43,40.94-96.65,56.23-147,11.77-38.75,19-78.27,20.12-118.7.42-15.51-1.18-31.2-3.19-46.63a236,236,0,0,0-35.55-97.9c-24.44-38.13-57.44-66.54-98.57-85.41-10.09-4.63-20.57-8.4-30.88-12.57a12.81,12.81,0,0,0,2.89,7.43Q2318,681.07,2330.18,696Z"
        transform="translate(-528.6 -260.08)" />
    <path class="cls-1"
        d="M1007.67,437.73c27.84-6.78,53.59-18.71,79.53-30.37,22.5-10.1,45-20.47,68-29.05,36.79-13.67,75.46-19.92,114.08-26.07,27.45-4.37,55-8.31,82.31-13.42,20.56-3.84,40.71-9.81,61.26-13.75,14.55-2.8,29.47-4.25,44,1.49,4.35-4.82,1.66-8.09-2.12-10.91-10.17-7.57-21.59-12.47-33.78-15.77-32.46-8.79-65-6.39-97.58-.93-21.55,3.62-42.91,8.49-64.52,11.71-40.27,6-79.82,15.15-118.06,28.86-46.45,16.66-92.53,34.42-138.35,52.73-33,13.2-66.49,23.49-102.35,24.4-3.86.1-7.7,1.21-14,2.27,5,3,7.9,5.17,11.1,6.74C932.6,442.92,969.32,447.06,1007.67,437.73Z"
        transform="translate(-528.6 -260.08)" />
    <path class="cls-1"
        d="M582.46,955c18.3-29.28,43.68-52.17,68.54-75.47,23.71-22.24,47.87-44,69.28-68.54,25.81-29.59,48.58-61.17,64.19-97.44C802,672.76,809,630.47,801.83,586.33c-.8-4.89.56-8.38,3.37-12,20.6-26.77,41.52-53.29,66-76.68C886.35,483.15,901.88,469,921.76,461c.59-.24.83-1.35,1.66-2.79-5.9-1.54-11.21-3.57-16.68-4.24a86.05,86.05,0,0,0-62.88,16.34c-29.89,21.74-44.57,52.27-49.93,88-1.19,8-.78,16.39-3.14,24-5.39,17.27-12,34.16-18.19,51.19a737.59,737.59,0,0,1-35.13,80.76c-18.31,36.27-47.23,63.54-75.91,91-19.21,18.41-38.37,36.83-54,58.44-19.89,27.42-31.16,57.52-27.3,93C581.53,955.69,582.17,955.45,582.46,955Z"
        transform="translate(-528.6 -260.08)" />
    <path class="cls-1"
        d="M870.5,676.92c-2.34,2.17-3.54,3.15-4.59,4.28-1.27,1.38-2.44,2.85-3.6,4.32-13.63,17.31-21.24,37.45-26.89,58.38-10.48,38.83-13.14,78.7-14.58,118.65-1,26.87-1.28,53.76-1.94,80.64-.58,23.75-1.07,47.5-2,71.24-.5,13.41-1.34,26.84-2.71,40.19-3.88,37.85-8.9,75.6-12,113.51-2.71,33.38-.89,66.83,3.67,100.06.49,3.53,1.75,7,2.65,10.43l2.22.16c1.24-2.7,2.82-5.29,3.67-8.1,10.38-34.06,20.39-68.18,26.48-103.37,8.23-47.48,11.47-95.42,14.27-143.4,1.78-30.55,2.48-61.15,3.9-91.72q1.54-33.21,3.75-66.38c1.91-28.33,4.17-56.65,6.28-85,.07-.93.3-1.86.3-2.79q0-22,0-43.95c0-15.24-4.18-30.39-.91-45.7C869.25,685.06,869.69,681.66,870.5,676.92Z"
        transform="translate(-528.6 -260.08)" />
    <path class="cls-1"
        d="M1783.09,841.5c.37,8.33,5,11.52,13.22,9.72A25.11,25.11,0,0,0,1813.64,838c2.64-4.91,4.64-10.15,6.87-15.12a3.8,3.8,0,0,1,1.1,0c1.73.73,3.43,1.53,5.16,2.25,19,7.94,38.58,13.16,59.34,10,10.77-1.66,21.38-4.47,32-7,12.73-3,24.28-8.12,32.42-19.05,2.91-3.91,7.4-4.5,11.78-4.77,4.69-.28,9.4,0,14.09-.2,2.55-.13,5.06-.92,8.08-1.51-1.1-1.53-1.34-2.22-1.81-2.47q-33-17.83-66-35.6c-2.16-1.17-5-1.93-6.26-3.77-5.08-7.61-9.66-15.56-14.42-23.39,19.64,13,39.4,24.85,64.84,24.84a19.31,19.31,0,0,0-1.95-3.11c-8.6-8.16-17.35-16.16-25.81-24.47-6-5.91-11.59-12.29-17.48-18.34-13.66-14-30.37-22-49.86-22.92-7.71-.35-16,.12-23.53,5.79l13.51,8.87a5.71,5.71,0,0,1-4.1.39c-24.84-4.27-41.08,10.8-46.62,24.8-1.3,3.29-1.89,7.49-1,10.77.54,2,4.58,3,7.51,4.72-9.47,13.78-14.29,29.05-13.41,45.83.37,6.88-1.49,12.42-5.66,18.1C1786.28,821,1782.6,830.76,1783.09,841.5Zm133-45.92,27.25,8.31-.18.77H1913C1914.37,800.56,1915.14,798.33,1916.08,795.58Zm-29.64-19.64c-.16.83-.31,1.66-.46,2.5-4.18,1.12-8.3,2.51-12.54,3.33-13,2.52-19.8-3.59-19.62-18.45C1866.53,763.53,1876.08,770.78,1886.44,775.94Z"
        transform="translate(-528.6 -260.08)" />
    <path class="cls-1"
        d="M1502.9,314.51c31.16-4.15,62.42-3.56,93.59-1.28,41.41,3,82.72,7.34,124.09,10.92a464.79,464.79,0,0,0,99.13-1.73c40.23-5.11,75.52-21.18,107-46.22,6.13-4.88,11.5-10.72,17.22-16.12-13.71,1.79-26.29,5.57-39.13,7.75-27.38,4.65-54.82,9-82.36,12.43-19.49,2.44-39.22,4.8-58.77,4.34-26.78-.63-53.6-3.13-80.22-6.35-36.33-4.39-72.61-8.22-109.27-7.09-26.25.81-51.51,5.8-74.91,18.14-15.55,8.2-28.16,19.53-36.27,38,4.12-1.7,6.43-2.49,8.59-3.58A97.74,97.74,0,0,1,1502.9,314.51Z"
        transform="translate(-528.6 -260.08)" />
    <path class="cls-1"
        d="M1128,803.68c-6.15,8.87-10.3,19.18-15,29-2.32,4.8-4.48,9.27-8.84,12.87a155.13,155.13,0,0,0-16.59,16.54c-13.75,15.39-27.16,31.1-45.56,41.36-.41.23-.51,1-1.22,2.49,3.6,1,7.07,2.82,10.54,2.81,8,0,16.31,0,24.07-1.78a71.28,71.28,0,0,1,23.13-1.87c13,1.24,26.06,2.7,39.1,4,15.57,1.53,31.11,2,46.68-.48,18.26-2.93,33.94-10.26,45.64-25,1.44-1.82,3.11-3.45,4.77-5.28,1.91,3.58,3.21,6.81,5.19,9.56,2.16,3,5,6.88,9,5.17a15.75,15.75,0,0,0,7.32-7.67c4.75-10.67,1.12-24.15-9.37-30.43-7.31-4.38-10.53-10.43-13.85-17.58-7.24-15.57-17.09-29.11-33.8-36-.6-.25-.86-1.33-1.31-2.06,8.24-3.72,8.24-3.72,11.21-7.71-.51-.71-.88-1.69-1.59-2.15C1183.46,774,1146.41,777.09,1128,803.68Zm50,46c-5.48,2.31-10.79.57-13.77-4.15-4.09-6.48-1.18-13.52,6.39-14.66,7-1,13.34,1.25,19.88,5C1188.33,843.08,1183.91,847.17,1178,849.68Z"
        transform="translate(-528.6 -260.08)" />
    <path class="cls-1"
        d="M1680.05,939.14c-23.53-10.3-48.49-14.06-73.92-15.11a289.81,289.81,0,0,0-56.05,3.57c-44.68,6.85-86.88,20.71-125.18,45.17-18.34,11.71-34.46,25.91-46.71,44.16-4.48,6.66-7.36,13.74-6.76,22,.54,7.28,3.73,12.31,12.36,14.51-4-11.18-2.88-15.08,5.54-21a45.66,45.66,0,0,1,8-4.85c37.59-16.16,74.61-33.73,113.51-46.73,26.63-8.89,54.09-13.86,82-12.85,23,.83,46.09,3.72,68.92,7.13,27.44,4.1,53.61,12.4,76,29.75a10.61,10.61,0,0,0,2.5,1c.22-.72.64-1.36.52-1.88a31.75,31.75,0,0,0-1.34-4.46C1728.7,970.58,1707.88,951.33,1680.05,939.14Z"
        transform="translate(-528.6 -260.08)" />
    <path class="cls-1"
        d="M2115,2359c13.49,12.3,29.25,19.94,50,21.61-2.45-2.9-3.34-4.11-4.39-5.17-13-13.06-22.26-28.55-28.71-45.69-14.53-38.57-17.89-78.91-18.51-119.64-.06-3.71.82-7.42,1.16-11.14,2.23-24.85,4.06-49.75,6.76-74.55,3.84-35.32,8.36-70.57,12.46-105.86.45-3.89.06-7.88.06-13.72-2.18,2.53-3.28,3.5-4,4.7-6.5,10.67-13.47,21.11-19.28,32.14-28.72,54.49-40.34,113.23-41.59,174.23-.37,18,1.51,36.12,3,54.13C2075,2305.12,2088.79,2335.18,2115,2359Z"
        transform="translate(-528.6 -260.08)" />
    <path class="cls-1"
        d="M639.76,1299.9c14.32,11.09,29.16,21.44,45.14,30l1.82-1.31c-6.73-14-13.11-28.2-20.26-42-14.16-27.32-32.28-52-51.29-76.11-12.81-16.23-24.32-33.24-32.58-52.4-10.83-25.11-14.52-51.69-15.77-78.48a507.92,507.92,0,0,1,2.78-86.11c1-8.54,2.45-17,3.84-26.56a32.69,32.69,0,0,0-3.31,3A139.4,139.4,0,0,0,561.45,981c-18.93,28.88-28.51,61.09-31.81,95.06-4.57,47.16,6.14,91.23,29.45,132.34C579.59,1244.54,607,1274.56,639.76,1299.9Z"
        transform="translate(-528.6 -260.08)" />
    <path class="cls-1"
        d="M1756.53,1076c-3-11.57-8.34-21.5-17.25-29.42-2.16-1.93-4.81-3.32-7.23-5l-1.65,1.72c8.07,15.5,6.73,31-.48,46a153.66,153.66,0,0,1-13,21.6,85.11,85.11,0,0,1-23.42,22.71c-12.12,7.85-20.56,5-25.22-8.72a107.47,107.47,0,0,1-4-18.26c-1-6.29-.17-11.74,5.58-16.52,9-7.47,13.34-18,14.68-29.54,1.35-11.67-5.08-19.36-16.71-20.55a38.32,38.32,0,0,0-20.09,3.23c-13.43,6-20.4,17.24-24.64,30.34-4.75,14.67-5.7,29.74-4.45,45.25,1.21,15.06,5.22,28.77,13.21,41.48,15.15,24.11,38.71,32.65,65.63,23.56C1737.24,1170.51,1768.07,1119.69,1756.53,1076Z"
        transform="translate(-528.6 -260.08)" />
    <path class="cls-1"
        d="M1368.7,1117.74c8.53,30.47,29.66,50,57.52,63,10.87,5,22.45,7.76,34.66,6.58,38.89-3.75,63.55-44.13,57.38-78.9-3.48-19.6-11.32-37.63-25-52.77a51.47,51.47,0,0,0-28.68-16.57c-9.37-1.89-17.39,1.4-23.48,8.64-10.37,12.33-10.35,32.17-1.75,41.83a141,141,0,0,0,13.6,12.69c3.78,3.25,8.27,5.75,11.76,9.27,7,7.06,5.57,16.92-2.92,22.26-7.29,4.58-15.25,5.44-23.52,3.65-18.22-3.92-33.76-12.78-47.2-25.6-9.21-8.79-16.9-18.39-19.06-33.22C1365.67,1092.4,1365.19,1105.23,1368.7,1117.74Z"
        transform="translate(-528.6 -260.08)" />
    <path class="cls-1"
        d="M690.47,1409.46c0,2.5-.06,5-.16,7.51-.34,8.42-.84,16.83-1,25.25,0,1.84,1.16,3.71,2.41,7.36,3.55-4.35,6.55-7.08,8.41-10.44,6.36-11.49,13.16-22.84,18.28-34.88,24.54-57.62,25.45-116.67,7.81-176a108.84,108.84,0,0,0-49.46-63.8c-17.2-10.33-35.71-13.86-56.53-9.13,8.63,5.09,16.67,9.16,24,14.26,22.5,15.66,34.11,38.44,40.88,64.22,5,19.15,6.52,38.78,7,58.42.41,15.28-.82,30.6-1,45.91C690.79,1361.88,690.68,1385.67,690.47,1409.46Z"
        transform="translate(-528.6 -260.08)" />
    <path class="cls-1"
        d="M1430.72,1237.46c-12.1-7.7-24.11-15.54-36.77-23.72,0,2.15-.24,3.39,0,4.52,5.88,24.48,18.3,45.09,37.53,61.28,30.17,25.39,65.43,37.27,104.59,37.53,11.79.07,23.59-1.55,35.69-2.42.89,1.83,1.92,3.94,3.33,6.86,1.18-3.81,2.08-6.7,2.84-9.17l16.22-7c-.16-.42-.31-.85-.47-1.27l-13.57-1.72c-.27-1.35-.72-2.28-.58-3.11.73-4.31,1.51-8.6,2.46-12.86,5.62-25.3,12.22-50.46,10.64-76.75-.69-11.52-1.66-23-2.08-34.55-.42-11.78-.27-23.58-.49-35.37a58.08,58.08,0,0,0-1.13-7.32c-9,1.65-12.93,8-16.44,14-9.53,16.25-12.93,34.32-13.76,52.93-1.23,27.63,2.19,54.84,7.41,81.91,1.16,6,1.78,12.11,2.77,19-13-1.67-24.15-5.51-35.24-9.42C1496.9,1277.81,1463.46,1258.31,1430.72,1237.46Z"
        transform="translate(-528.6 -260.08)" />
    <path class="cls-1"
        d="M1395.5,2453.88c18.29-21.57,25.39-47.27,25.17-74.75-.16-20-4.87-39.76-12.87-58.22-10.55-24.36-22.12-48.29-33.18-72.43-11.38-24.83-21-50.15-21.52-79.88-2.06,2-3.13,2.63-3.69,3.58-2.39,4-4.89,8-6.86,12.24-11,23.67-11.37,48.34-6.25,73.35,6.22,30.33,19.51,57.87,33.75,85.07,14.67,28,24.69,57.39,23.21,89.59-.38,8.34-1.88,16.62-3,25.75C1392.33,2456.52,1394.18,2455.42,1395.5,2453.88Z"
        transform="translate(-528.6 -260.08)" />
    <path class="cls-1"
        d="M2076.48,1542.69q-11.05,27.36-23.33,54.21c-14.54,32-22.77,65.52-23.58,100.48a138.74,138.74,0,0,0,8.79,53.24c.33.84.68,1.67,1,2.36,5.16-15.8,8.92-31,15-45.16,11-25.53,23.41-50.42,35.12-75.64,14.09-30.35,24.44-61.57,21.94-95.75-1.1-15-2.61-30-11.89-42.68-5.13-7-11.94-10.79-21.54-8.61,7.61,4.48,7.34,11.39,7,18.38A118.39,118.39,0,0,1,2076.48,1542.69Z"
        transform="translate(-528.6 -260.08)" />
    <path class="cls-1"
        d="M1831.73,2415.66l1.68-1.29c-1.09-2.43-2.23-4.85-3.28-7.31-3-6.87-6.45-13.56-8.7-20.66-7.7-24.3-10-49.53-10.6-74.8-.68-28.16-.1-56.35-.18-84.52-.06-25.34-2.93-50.47-6.41-75.51-1.11-8-3.16-15.79-5.19-25.68-2.16,4.41-3.55,6.81-4.54,9.36-18.86,48.47-30.53,98.16-27.28,150.73,2.42,39,13.19,74.84,37.5,106C1812.24,2401.62,1820.39,2410.5,1831.73,2415.66Z"
        transform="translate(-528.6 -260.08)" />
    <path class="cls-1"
        d="M2234.17,1383.73c5.28-22.48,10.59-45,14.63-67.73,3.19-17.91,3.36-36.12-2.28-53.82-3.94-12.35-10.31-23.12-22.43-32.45,2.38,24.71-2.16,46.27-9.48,67.47-5.91,17.12-11.9,34.24-17.08,51.6a142.52,142.52,0,0,0-4,62.16c4.11,27.79,16,52.4,30.71,75.91a37.06,37.06,0,0,0,3.66,4.33c0-17.82-.4-35.29.11-52.72C2228.54,1420.1,2229.93,1401.78,2234.17,1383.73Z"
        transform="translate(-528.6 -260.08)" />
    <path class="cls-1"
        d="M998.26,1830l2.06-.34c-.09-1.5-.09-3-.3-4.52-4.85-34.3-10.58-68.43-19.53-102-11.84-44.43-28.88-86.46-56.42-123.7-3.77-5.09-7.93-9.89-11.91-14.83l-2,1.23C909.32,1678.14,946.11,1756.85,998.26,1830Z"
        transform="translate(-528.6 -260.08)" />
    <path class="cls-1"
        d="M2207.35,1571.17c-2-21.13-6.86-41.29-17.37-59.83-4.77-8.4-10.26-16.34-19.8-23.59,0,3.73-.22,5.6,0,7.4,2.61,18.45-.4,36.7-1.81,55-1.27,16.49-3.12,32.95-3.73,49.46a231,231,0,0,0,5.62,58.6c5,22.28,13.82,42.81,29.5,59.88,2.21,2.41,4.66,4.58,7.48,7.32-1.35-15.21-3.32-29.1-3.6-43a366,366,0,0,1,1.85-43C2207.73,1616.64,2209.55,1594,2207.35,1571.17Z"
        transform="translate(-528.6 -260.08)" />
    <path class="cls-1"
        d="M2148.65,1998.52c1.68,2.08,3.67,3.91,6.83,7.22-3.51-71-8.74-139.46-18.59-209.71-3.38,4.31-5.39,6.59-7.09,9.08-19.35,28.33-25.85,59.63-22.47,93.57C2111.06,1936.23,2125,1969.32,2148.65,1998.52Z"
        transform="translate(-528.6 -260.08)" />
    <path class="cls-1"
        d="M2193,1790.79c4.61-36.78-2.25-69.48-21.94-99.54-6.85,10.1-7.87,14.44-9.33,38.27-2.71,3.2-5.2,5.46-6.85,8.22-11.1,18.49-14.8,38.58-13.63,60,1.72,31.75,13.85,58.63,35.87,81.26,1.35,1.4,3.14,2.38,5.39,4,2-42.25-6.06-82.19-14.11-122.31C2175.58,1771.31,2182,1782.22,2193,1790.79Z"
        transform="translate(-528.6 -260.08)" />
    <path class="cls-1"
        d="M1714.84,1193c-21.32,19.46-39,42.19-57.4,64.28-15.33,18.42-32.54,34.59-53.83,46-1.24.66-2.36,1.51-4.24,2.73,61.25,8.24,147.05-70.5,152.46-139.41-5.58-1-8.94,2.28-12.2,5Q1727,1181.91,1714.84,1193Z"
        transform="translate(-528.6 -260.08)" />
    <path class="cls-1"
        d="M1411.22,2635.51c8.74-9.78,17.3-19.72,26-29.57,20.8-23.62,34-50.82,37.9-82.16,2.17-17.4,2-34.82-3.71-52.8-33.44,36.47-72.82,136-67.4,170.66C1406.71,2639.36,1409.26,2637.7,1411.22,2635.51Z"
        transform="translate(-528.6 -260.08)" />
    <path class="cls-1"
        d="M2299.34,670.07c-14.5-28.61-29.6-56.19-50.4-80.32-16.74-19.42-35.89-35.6-59.38-46.24-4.76-2.16-9.72-3.87-16.2-6.43C2190.23,599,2249.67,658.37,2299.34,670.07Z"
        transform="translate(-528.6 -260.08)" />
    <path class="cls-1"
        d="M840.59,1333.9c-.63-6.06-.49-12.2-.7-18.3-28,26.65-37.89,59.14-32,96,6.23,39.3,39,70.08,60.19,74.39-1.51-3.37-3-6.42-4.25-9.53-7.73-18.58-12.07-38-14.18-58C846.64,1390.31,843.48,1362.12,840.59,1333.9Z"
        transform="translate(-528.6 -260.08)" />
    <path class="cls-1"
        d="M2096.31,1696.88c-.33-6.61.39-13.43-2.94-20.75-45.37,53.82-58.68,113.71-40.18,180.45,5.81-13.07,11.46-26.23,17.47-39.21C2088.35,1779.14,2098.41,1739.3,2096.31,1696.88Z"
        transform="translate(-528.6 -260.08)" />
    <path class="cls-1"
        d="M1697,2730.92c.89-2.72,1.77-4.9,2.32-7.17,2.49-10.3,5-20.59,7.3-30.94,6.21-28.54,8.95-57.3,4.14-86.34-2.13-12.85-4.76-25.66-10.57-38.79C1667.78,2616.94,1668.15,2676.76,1697,2730.92Z"
        transform="translate(-528.6 -260.08)" />
    <path class="cls-1"
        d="M1916.89,1037.41c-6.88-7.24-13.72-14.55-21-21.38-1.59-1.49-5.37-2-7.43-1.14-1.32.53-2.08,4.39-1.8,6.6A147.26,147.26,0,0,0,1890,1038c6.85,28.1,17.52,54.11,39.7,74.06,12.47,11.22,26,20.17,42.71,24-6.47-12.57-13-24.5-18.84-36.78C1943.21,1077.47,1933.82,1055.21,1916.89,1037.41Z"
        transform="translate(-528.6 -260.08)" />
    <path class="cls-1"
        d="M1110.78,1194.22l1.8,1c13-13.44,26.45-26.49,39-40.39,19.37-21.53,32.86-46.29,37.91-75.15.66-3.73.62-7.59,1-13C1143.43,1098.13,1115.91,1139.25,1110.78,1194.22Z"
        transform="translate(-528.6 -260.08)" />
    <path class="cls-1"
        d="M2183.47,2486.18c16.24-53.78-25.29-110.86-78.62-114.07a37.62,37.62,0,0,0,2.41,5.12c10.07,15,20,30.11,30.37,45,14.07,20.24,28.39,40.3,42.63,60.43C2180.93,2483.57,2181.81,2484.35,2183.47,2486.18Z"
        transform="translate(-528.6 -260.08)" />
    <path class="cls-1"
        d="M1203.82,2580c27.37-35.42,41.78-95.64,27.27-130.55-3.78,4.78-7.24,9.06-10.6,13.42-9.43,12.24-14.4,26.7-20.17,40.76l.14-.15-.16.18c-.1-1.49-.58-3.11-.19-4.49,3.68-13.13,3.84-26.57,3.45-40-.23-8-.58-16-4.65-23.46-28.1,29.47-40.28,84.82-29.21,121.05,10-13.05,18.56-26.31,24.69-41.12,1.75-4.21,4.1-8.17,6.17-12.25-1.3,13-3.47,26-3.66,39A96.9,96.9,0,0,0,1203.82,2580Z"
        transform="translate(-528.6 -260.08)" />
    <path class="cls-1"
        d="M1258.29,2608.94c29.53-32.81,40.16-96.37,16.54-134.4C1250.14,2517.07,1251.47,2561.85,1258.29,2608.94Z"
        transform="translate(-528.6 -260.08)" />
    <path class="cls-1" d="M943.19,2182c-50,11.32-83.84,68.08-74.26,104.28C909.72,2252.37,942.33,2206.58,943.19,2182Z"
        transform="translate(-528.6 -260.08)" />
    <path class="cls-1"
        d="M1721.52,2658.34c3.27,22.77,13.18,43.14,25.55,64.57,13.9-47.24,13.38-90.43-17.34-131.48C1721.66,2614.31,1718.33,2636.07,1721.52,2658.34Z"
        transform="translate(-528.6 -260.08)" />
    <path class="cls-1"
        d="M737.52,1905.44c-31.4,10.32-62.88,43.75-87.44,93.25C692.75,1995,740.1,1944.11,737.52,1905.44Z"
        transform="translate(-528.6 -260.08)" />
    <path class="cls-1"
        d="M772.12,1957.17c-14.52,1.95-26.32,7.35-37.63,14.13-29.32,17.58-44.85,47.06-64.76,73.76C711.77,2040.88,750.53,2007.05,772.12,1957.17Z"
        transform="translate(-528.6 -260.08)" />
    <path class="cls-1"
        d="M1355,2662.77c30.15-25.47,48.76-82.77,33.13-122.08C1365.1,2558.73,1346.2,2613.53,1355,2662.77Z"
        transform="translate(-528.6 -260.08)" />
    <path class="cls-1"
        d="M1582.27,2678.09c25-31.41,30.11-102.13,9.39-126.19C1565.75,2592.1,1567,2634.16,1582.27,2678.09Z"
        transform="translate(-528.6 -260.08)" />
    <path class="cls-1"
        d="M824.38,2181.76a135,135,0,0,0,39.88-46.47c4.19-7.89,7.49-16.14,8.82-25.67-38.53,12.1-80.46,50.88-85.4,97.76a16.41,16.41,0,0,0,3.41-1.39Q807.77,2193.93,824.38,2181.76Z"
        transform="translate(-528.6 -260.08)" />
    <path class="cls-1"
        d="M919.81,2339.74c29.57-28.87,59.67-75.29,63.3-107.78C938.71,2244.37,909.21,2299.26,919.81,2339.74Z"
        transform="translate(-528.6 -260.08)" />
    <path class="cls-1" d="M689.6,1564.47c-18.16,37.59-27.35,76.89-32,117.9C692.39,1667.37,720.5,1605.25,689.6,1564.47Z"
        transform="translate(-528.6 -260.08)" />
    <path class="cls-1"
        d="M1935.88,2733.31c3.33,2.09,6.78,4,11.25,6.61-.26-2.63-.25-3.82-.51-5-5.36-23.22-16.27-43.78-30.55-62.61-9.25-12.2-18.5-24.33-23.47-39.08-.11-.33-1-.39-1.85-.69a32.21,32.21,0,0,0-8.48,19.13q-3.15,31.09,18.26,54.07C1910.84,2716.9,1923.17,2725.33,1935.88,2733.31Z"
        transform="translate(-528.6 -260.08)" />
    <path class="cls-1"
        d="M1506.64,2676.69c26.07-35.32,30.54-94.8,15.95-121C1495.24,2582.3,1490.35,2638.58,1506.64,2676.69Z"
        transform="translate(-528.6 -260.08)" />
    <path class="cls-1"
        d="M1840.62,2545.4c11.62-11.54,16.56-24.86,15.61-39.72-2.13-33.55-21.84-56.5-48.52-77.51-.34,6.08-1,10.31-.73,14.48.84,13.88,5.26,26.83,10.69,39.52,6.38,14.9,12.74,29.82,18.59,44.94C1838.41,2532.66,1839.09,2538.77,1840.62,2545.4Z"
        transform="translate(-528.6 -260.08)" />
    <path class="cls-1"
        d="M972.65,1392.41c-20.7,11.64-31.11,29.51-33.36,52.17-1.92,19.33,8.34,51,25,61.48C972,1468.25,969.54,1430.24,972.65,1392.41Z"
        transform="translate(-528.6 -260.08)" />
    <path class="cls-1"
        d="M1792.13,2604.71c-5.7,13.64-6.29,27.68-4.22,42.21,4.08,28.71,21.65,48.62,42.1,67.83,5.84-31-9.78-79.61-36-113.23A28.2,28.2,0,0,0,1792.13,2604.71Z"
        transform="translate(-528.6 -260.08)" />
    <path class="cls-1"
        d="M1111.4,793.34C1094.17,800,1081,811.9,1071.11,827c-10.1,15.37-19.1,31.46-28.51,47.27a30.63,30.63,0,0,0-1.9,5.23c4.67,2.83,8.13.29,11.65-1.49,22.91-11.58,40-29.61,54.61-50.14,8.3-11.62,16.13-23.58,22.34-37.41C1122.44,789.4,1116.83,791.25,1111.4,793.34Z"
        transform="translate(-528.6 -260.08)" />
    <path class="cls-1"
        d="M1630.59,2554.88c-1.33,2.39-3.25,4.53-3.75,7a235.78,235.78,0,0,0-4.1,24.83c-2.67,28.6,7.27,53.94,21,78.18.55,1,1.69,1.6,3.68,3.41,6.85-21.19,10.58-41.51,6.9-62.86C1651.52,2589.09,1638.84,2560.8,1630.59,2554.88Z"
        transform="translate(-528.6 -260.08)" />
    <path class="cls-1"
        d="M1306.17,2620.81c23.43-21.3,33.88-79.3,14.56-115.76C1298.66,2541.9,1295,2580,1306.17,2620.81Z"
        transform="translate(-528.6 -260.08)" />
    <path class="cls-1"
        d="M2075.93,2420.15c15.51,40.23,50.4,78.69,73.53,81.51C2140.87,2452,2109.38,2422.87,2075.93,2420.15Z"
        transform="translate(-528.6 -260.08)" />
    <path class="cls-1"
        d="M1492.91,2548.25c-30.83,16-42.48,69-30.56,103.05C1485.33,2633.24,1500.06,2577.67,1492.91,2548.25Z"
        transform="translate(-528.6 -260.08)" />
    <path class="cls-1"
        d="M2038.18,2606.3c-7.61-38.67-23.15-71.54-60.81-90.13C1974.73,2550.94,2008.58,2601.06,2038.18,2606.3Z"
        transform="translate(-528.6 -260.08)" />
    <path class="cls-1"
        d="M1868.11,2711.71c4.54,2.66,9.32,5.36,15.46,1.67a67.21,67.21,0,0,0-1.9-6.94c-2.23-5.77-5.05-11.34-6.91-17.22-2.91-9.2-5-18.65-7.84-27.88-4.27-14-9-27.85-17.77-40.9-9.31,11.66-14.72,37.33-9,55.22C1845.1,2691.21,1854,2703.46,1868.11,2711.71Z"
        transform="translate(-528.6 -260.08)" />
    <path class="cls-1"
        d="M669.43,1911.06c15.13.57,26.82-6.44,35.15-18.17,14.33-20.21,15.68-43,11.21-68.84-4.24,5.17-7.56,8.42-9.94,12.25-7.75,12.48-15,25.26-22.71,37.77-7.52,12.21-15.28,24.31-29.75,29.83C659.6,1909.48,662.49,1910.79,669.43,1911.06Z"
        transform="translate(-528.6 -260.08)" />
    <path class="cls-1"
        d="M648.42,1750.05c12.54-.25,34.55-16.55,44.67-31,8.93-12.8,16.5-40,9.06-57.8-4.32,5.06-8.37,10.15-12.77,14.9-16.08,17.32-29.63,36.27-37.53,58.77C650.25,1739.41,649.68,1744.31,648.42,1750.05Z"
        transform="translate(-528.6 -260.08)" />
    <path class="cls-1"
        d="M2019.47,310.52c-37.32-15.16-74.34-7.54-111.94-1.51C1932.16,334.8,1993.7,335.7,2019.47,310.52Z"
        transform="translate(-528.6 -260.08)" />
    <path class="cls-1" d="M1988,370.85c34.94,22.11,70,29.27,109.43,14.51C2063.45,359,2027.49,358.75,1988,370.85Z"
        transform="translate(-528.6 -260.08)" />
    <path class="cls-1" d="M1433.41,2414.92c-22.19,33.33-28.3,75.86-18,100.41C1444.38,2483,1450,2443,1433.41,2414.92Z"
        transform="translate(-528.6 -260.08)" />
    <path class="cls-1"
        d="M1014.67,2396.35c11.33-17.52,23.21-34.73,33.68-52.75,6-10.34,10.55-21.77,10.76-34.39-28.45,4.68-64.4,49.26-46.11,87.83C1013.57,2396.82,1014.4,2396.77,1014.67,2396.35Z"
        transform="translate(-528.6 -260.08)" />
    <path class="cls-1" d="M779,2014.47c-19.67,1-53.08,43.09-61.17,77.72C750.9,2086,785.7,2041.25,779,2014.47Z"
        transform="translate(-528.6 -260.08)" />
    <path class="cls-1" d="M2076.89,453.12c9.35,27.71,60.58,45.72,94.67,33.28C2156.9,465,2103.4,449.05,2076.89,453.12Z"
        transform="translate(-528.6 -260.08)" />
    <path class="cls-1"
        d="M1074.22,923.45c-5.49-7.55-12-10.11-19.4-10.69-35.43-2.74-57.77,29-59.82,52.73-.22,2.62.23,5.31.4,8.6,15.89-11.55,31.15-22.25,46-33.53C1051.11,933.13,1060.74,925.82,1074.22,923.45Z"
        transform="translate(-528.6 -260.08)" />
    <path class="cls-1"
        d="M1911.81,2590.69c-4.27,34.23,16.47,69.13,51.91,84.23C1958.22,2639.61,1941.37,2611.92,1911.81,2590.69Z"
        transform="translate(-528.6 -260.08)" />
    <path class="cls-1" d="M703,1730.14c-21.47,23.85-37.68,49.67-54.35,76.13C681.24,1809.26,713.92,1776.27,703,1730.14Z"
        transform="translate(-528.6 -260.08)" />
    <path class="cls-1"
        d="M2033,405c-3.77.64-7.55,1.17-12,1.86,20.3,23.51,70.27,35.45,93,22.13-1.79-2.41-3.08-5.28-5.3-6.88a88.44,88.44,0,0,0-12.92-7.45C2075.82,404.84,2055,401.23,2033,405Z"
        transform="translate(-528.6 -260.08)" />
    <path class="cls-1" d="M707.91,1775c-19.22,18.16-50.63,62.27-52.89,74.27C693.43,1848.87,720.71,1809,707.91,1775Z"
        transform="translate(-528.6 -260.08)" />
    <path class="cls-1"
        d="M826.34,2229.87c27.52-18.24,52.53-36.71,63.66-68.9C856.26,2162.1,826.49,2194.55,826.34,2229.87Z"
        transform="translate(-528.6 -260.08)" />
    <path class="cls-1"
        d="M1996.42,2632.45c-1.88-32.16-22.81-63-49.7-71.26C1943.73,2586.09,1969.71,2623.34,1996.42,2632.45Z"
        transform="translate(-528.6 -260.08)" />
    <path class="cls-1"
        d="M1966.34,336.06c-2.06.47-3.71,2.72-5.59,4.17,14.56,16.24,60.43,19,88,5.62a23.71,23.71,0,0,0-2.68-2.37C2020.67,328.57,1993.7,329.82,1966.34,336.06Z"
        transform="translate(-528.6 -260.08)" />
    <path class="cls-1"
        d="M1002.54,2273.93c-24.81,9.21-43.82,44.73-38.3,76.42C986.86,2328.7,1003,2305.9,1002.54,2273.93Z"
        transform="translate(-528.6 -260.08)" />
    <path class="cls-1" d="M2068.89,2543c-5-32.31-23.64-56.88-50-65.08C2016.54,2498.9,2045.33,2540,2068.89,2543Z"
        transform="translate(-528.6 -260.08)" />
    <path class="cls-1"
        d="M2011.91,810c-18.38-7.91-36.45-7.54-53.11,4.93-2,1.51-5,3-3.45,7.06l82.08,13.15C2031.88,822.37,2023,814.72,2011.91,810Z"
        transform="translate(-528.6 -260.08)" />
    <path class="cls-1"
        d="M1060.81,2425.5c24.11-15.83,37.09-58.11,29.06-74.37C1069.42,2361.58,1054.43,2398.93,1060.81,2425.5Z"
        transform="translate(-528.6 -260.08)" />
    <path class="cls-1"
        d="M1576.47,1340.05c-16.36,22.72-2.19,63.41,17.47,82.58C1600.49,1398.9,1590.59,1359.16,1576.47,1340.05Z"
        transform="translate(-528.6 -260.08)" />
    <path class="cls-1"
        d="M821.46,2069.16c-28.09.52-55.9,25.63-56.42,55.12C790.43,2112.56,811.88,2097.09,821.46,2069.16Z"
        transform="translate(-528.6 -260.08)" />
    <path class="cls-1"
        d="M1812.33,708.6c13-13.46,18-34.39,11.63-46.15-7.51.08-7.23,9.06-12.51,11.85-2.46-5.24-1.11-11.93-7.51-14.49-10.23,10.08-13.79,40.55-6.08,55.52l9.68-13.51Z"
        transform="translate(-528.6 -260.08)" />
    <path class="cls-1"
        d="M2053.55,2456.19c-3.35,21.73,20.7,49.49,44.56,56.8C2097,2489.3,2076.76,2460.92,2053.55,2456.19Z"
        transform="translate(-528.6 -260.08)" />
    <path class="cls-1"
        d="M931.57,1350.42c-14.13,21.51-22,43.67-19.89,69.5C936.27,1407.83,945.71,1371.87,931.57,1350.42Z"
        transform="translate(-528.6 -260.08)" />
    <path class="cls-1"
        d="M1135.8,2459.28c8.53-21.65,20.76-42.19,16.57-67.6C1123.82,2409.59,1120.53,2447.76,1135.8,2459.28Z"
        transform="translate(-528.6 -260.08)" />
    <path class="cls-1" d="M1189.69,712c-14.55,18.07-8.73,49.34,9.93,55.26C1200.67,748.11,1199.09,729.59,1189.69,712Z"
        transform="translate(-528.6 -260.08)" />
    <path class="cls-1"
        d="M1222.73,766c-3.38-15.37-6.69-30.44-10.15-46.16-9.48,5-12.11,10.22-10.66,21.25C1203.51,753.11,1212.17,763.81,1222.73,766Z"
        transform="translate(-528.6 -260.08)" />
</svg>