<svg id="Layer_1" data-name="Layer 1" xmlns="http://www.w3.org/2000/svg" viewBox="0 0 4027.35 703.78">
    <defs>
        <style>
            .cls-1 {
                fill: #9a9aff;
            }
        </style>
    </defs>
    <path class="cls-1"
        d="M572.25,909.56A121.35,121.35,0,0,0,575,885.31c0-63-58.53-100.44-118.45-100.44A140.11,140.11,0,0,0,422.63,789c33.59-23.89,74.46-51.25,94.55-85.89C530,681,535.54,661.57,535.54,644.94c0-71.69-95.59-95.59-157.59-95.59-46.41,0-96.29,4.16-146.51,4.16-19.05,0-38.44-.7-57.84-2.43,18.71,18.71,25.63,98.71,25.63,190.15,0,132.65-14.2,288.85-27.36,314.83,0,0,19.74-6.23,58.53-6.23a393.72,393.72,0,0,1,53.34,3.46,427.43,427.43,0,0,0,52.3,3.46C437.17,1056.75,548.35,1020,572.25,909.56ZM300.37,810.15c0-65.8,4.5-130.57,20.08-175.94,14.55-43.3,40.87-70.66,62.69-70.66,18.71,0,33.6,20.78,33.6,70.31v4.85C414,813.62,329.46,815.35,305.91,957,303.14,912.67,300.37,861.07,300.37,810.15ZM327,1034.24H311.1c2.77-45.72,35-205.73,106-205.73,27.7,0,47.45,27,47.45,69.27C464.54,957.7,423.32,1034.24,327,1034.24Z"
        transform="translate(-171.87 -523.72)" />
    <path class="cls-1"
        d="M683.08,551.08c11.43,6.93,21.48,27.37,31.17,55.77-102.17,101.48-113.25,488-222.7,488,13.51,26.32,38.79,39.14,66.85,39.14C617.62,1134,689,1077.53,689,970.51a290.19,290.19,0,0,0-4.15-47.45c-2.43-14.2-5.2-29.44-8.32-46.06,39.49,44,87.63,49.18,123.3,130.92,13.86,31.17,40.18,48.14,83.47,48.14h57.84c-54.72-142-58.88-370.59-95.59-447.83C822.32,559.05,773.83,551.08,683.08,551.08Zm-13.5,244.18c.34-53.68,12.12-111.52,52.64-162.44,25.28,90,44.68,227.9,55.07,289.9C733,883.23,669.58,871.46,669.58,795.26Z"
        transform="translate(-171.87 -523.72)" />
    <path class="cls-1"
        d="M1237.59,820.2a104,104,0,0,0-37.41,7.27c55.77-61.65,123-129.19,123-182.87,0-67.19-93.86-95.25-157.94-95.25-50.22,0-98.71,6.24-150.31,6.24A490.88,490.88,0,0,1,965,553.16c13.51,40.52,24.25,164.17,24.25,280.2,0,97.67-7.62,190.14-27.37,222.7l95.94-.35,48.15.35a220.93,220.93,0,0,1-3.81-41.56c0-91.78,59.91-148.93,102.86-148.93,32.21.34,44,27.71,44,64.77,0,50.56-23.21,115.68-47.45,138.19,17,4.5,32.21,6.93,46.06,6.93,72,0,104.6-55.77,104.6-115C1352.23,891.54,1306.51,820.2,1237.59,820.2ZM1091.43,957c-2.77-44.34-5.54-95.94-5.54-146.86,0-65.8,4.5-130.57,20.09-175.94,14.54-43.3,41.21-70.66,62.69-70.66,18.7,0,33.59,20.78,33.59,70.31C1200.53,812.23,1114.63,817.77,1091.43,957Z"
        transform="translate(-171.87 -523.72)" />
    <path class="cls-1"
        d="M2037,827.47a182.43,182.43,0,0,0-19,.69c55.77-61.3,123.31-129.19,123.31-182.87,0-66.84-94.9-95.25-154.82-95.59-54.73,0-106.68,9.7-163.48,9.7a399.33,399.33,0,0,1-81.39-8c49.18,28.4,67.54,181.83,67.54,315.52,0,32.91-1,64.77-3.12,93.17-.35,4.16-.35,8.31-.35,12.47,0,84.16,66.5,122.61,139.58,122.61,48.84,0,100.79-17,137.5-49.18-38.44,53-96.28,75.15-159.67,75.15-152.73,0-335.26-130.22-340.46-271.53A443.77,443.77,0,0,1,1632.08,798c59.92-58.19,119.15-105.64,119.15-166.94a96,96,0,0,0-1.39-17c-8-43-56.45-64.08-102.52-73.43a87.94,87.94,0,0,1,3.81,27c0,95.24-126.42,232.75-152.39,370.59-2.43-42.25-4.85-86.59-4.85-129.88,0-99.4,12.12-195,62.34-256.64a284.12,284.12,0,0,1-87.28,13.5c-36,0-67.88-6.23-96.63-11.77,15.24,30.82,22.17,120.87,22.17,217.16,0,116.72-10,243.14-28.4,286.43H1511.9a148.74,148.74,0,0,1-4.16-35c0-46.41,20.09-94.55,48.14-136.46l-.34,10.73c0,200.19,186.68,331.11,329.38,331.11a224.84,224.84,0,0,0,26.67-1.73c156.55-20.09,252.14-163.82,252.14-272.92C2163.73,882.89,2124.59,827.47,2037,827.47Zm-133.34-18c0-65.46,4.85-129.54,20.09-174.56,14.54-43.29,41.21-71,63-71,18.36,0,33.6,21.13,33.6,70.65-1.73,178.37-88,182.88-110.83,323.49C1906.74,913.36,1903.62,860.72,1903.62,809.46ZM1957,1064c-19,0-32.21-12.47-32.21-42.95a157.76,157.76,0,0,1,3.11-28.75c19.4-104.59,75.16-142.69,119.49-142.69,34.64,0,63,21.82,63,54.37C2110.39,968.78,2007.87,1064,1957,1064Z"
        transform="translate(-171.87 -523.72)" />
    <path class="cls-1"
        d="M2534.67,553.85c-17.32,3.12-46.41,5.55-76.89,5.55-25.63,0-52-1.74-73.77-5.89,31.52,35,60.95,158.63,60.95,262.18,0,57.15-9,108.06-31.86,134-22.86,26.32-56.45,39.14-89,39.14-51.26,0-100.44-32.56-100.44-95.25,0-43.29,23.2-100.44,84.16-171.44,22.86-26.67,33.6-54.72,33.6-80.35,0-50.92-42.26-92.13-115-92.13a254.18,254.18,0,0,0-52,5.89c35.67,42.6,47.1,88.32,47.1,134,0,62-20.78,124.34-31.52,180.8a174.48,174.48,0,0,0-3.11,32.21c0,95.94,86.23,155.16,172.48,155.16a158.55,158.55,0,0,0,28.74-2.42c40.53-6.24,69.62-28.75,106.68-28.75,14.2,0,29.09,3.12,46.41,11.78-10.39-14.9-13.51-94.9-13.51-185.65C2527.74,716.29,2534.67,554.89,2534.67,553.85Z"
        transform="translate(-171.87 -523.72)" />
    <path class="cls-1"
        d="M2748.71,549l-10.39.34c-51.6,1.39-101.48,8.31-153.08,8.31l-21.48-.34c18.71,17.66,25.63,96.28,25.63,186.33,0,130.92-14.2,285.74-27.36,312.06,26-2.42,52.3-4.15,79.31-4.15,23.9,0,47.8,1.38,72.39,3.81-8-6.93-10.73-18-10.73-31.52,18,20.44,39.83,29.09,63,29.09,58.88,0,125.73-55.07,153.43-108.75,22.52-43.64,34.29-95.94,34.29-147.89C2953.75,672,2887.6,549,2748.71,549Zm27,458.91c-12.12,11.43-24.59,18-35.33,18-22.51,0-39.83-27-40.87-92.13l-4.85-257.34c0-82.08,15.93-112.91,37.76-112.91a25.1,25.1,0,0,1,8.65,1.39c65.12,21.82,103.22,129.53,103.22,236.9C2844.31,882.54,2823.18,962.89,2775.73,1007.92Z"
        transform="translate(-171.87 -523.72)" />
    <path class="cls-1"
        d="M3368.33,838.9c0-66.15-64.42-96.63-128.15-96.63-33.59,0-67.19,8.31-90.74,24.24-24.59,16.28-34.63,39.14-34.63,61.65,0,42.6,36,85.55,75.85,85.55h2.77c19.74-74.46,56.1-100.79,87.62-100.79,33.25,0,61.65,28.75,61.65,61,0,27-19.39,56.8-72,74.81a128.79,128.79,0,0,1-40.52,6.24c-79.66,0-178.37-66.16-178.37-203.66a321.65,321.65,0,0,1,4.5-53c6.93-41.56,21.82-56.11,41.56-56.11,15.24,0,33.6,8.66,54,20.09,30.13,17.32,58.18,24.59,83.12,24.59,69.27,0,115-56.45,115-110.83,0-15.59-3.47-30.83-11.43-44.68-24.59,26.32-74.81,36.37-126.42,36.37-63.73,0-129.19-15.59-150.66-35.68a155.9,155.9,0,0,1,6.92,44.34c0,77.23-69.26,112.91-85.54,206.42a269.38,269.38,0,0,0-3.12,41.56c0,118.11,75.16,259.42,184.95,259.42a119.81,119.81,0,0,0,27-2.77c77.23-15.93,94.89-70.31,153.77-70.31,13.17,0,28.75,2.77,47.45,9.35-22.16-40.87-24.59-96.29-24.59-145.81Z"
        transform="translate(-171.87 -523.72)" />
    <path class="cls-1"
        d="M3506.18,637c15.59,0,35,8,56.11,19,31.86,16.27,61,23.2,86.93,23.2,70,0,114-50.91,114-101.48,0-16.28-4.15-32.21-13.85-46.41-28.06,29.09-82.78,32.91-82.78,32.91a288.43,288.43,0,0,1-30.48,1.38c-70.31,0-156.2-20.09-172.48-33.94,6.58,17.66,9.35,33.25,9.35,47.45,0,70.31-66.84,104.6-79,191.88a257.27,257.27,0,0,0-2.77,36.36c0,108.41,66.16,215.43,181.84,243.83a176,176,0,0,0,42.25,5.2c67.54,0,130.23-38.79,130.23-111.18a151.25,151.25,0,0,0-4.16-33.94c-33.59,18-66.84,28.4-97,28.4-46.07,0-85.55-23.21-110.49-78.62-9-19.4-13.51-39.14-13.51-55.42,0-21.13,8-36,24.25-36,9.69,0,22.16,4.85,38.09,17,37.41,28.4,75.85,44.33,105.64,44.33,32.21,0,54.38-18.35,54.38-59.22,0-12.82-2.43-27.71-6.93-45.37-17.66,21.47-37.41,28-57.49,28-27,0-55.77-11.78-83.47-15.59a179.75,179.75,0,0,0-18.71-1c-53,0-75.15,33.59-75.15,75.15a146.66,146.66,0,0,0,8,46.07c-29.78-45.37-45-101.83-45-146.51C3463.93,660.88,3480.9,637,3506.18,637Z"
        transform="translate(-171.87 -523.72)" />
    <path class="cls-1"
        d="M4077,527.88c-75.86,0-162.1,33.59-215.44,33.59-29.09,0-50.91-9.35-60.61-37.75-12.81,28.06-18.7,53-18.7,74.47,0,53.34,35.68,84.51,84.51,84.51,43.29,0,96.63-24.59,144.43-80.36,35.33-40.87,70.31-55.07,97.67-55.07,31.52,0,53.34,19.4,53.34,39.83,0,22.52-26,46.07-93.17,46.07-214.74,0-116.72,328.34-181.49,429.47H4068.3c-20.78-73.77-45.71-186.68-45.71-272.92,0-69.62,16.28-122.26,63.73-122.26,70.31,0,112.91-37.41,112.91-73.43C4199.23,560.43,4162.51,527.88,4077,527.88Z"
        transform="translate(-171.87 -523.72)" />
</svg>