<?xml version="1.0" encoding="utf-8"?>
<!-- Generator: Adobe Illustrator 26.0.1, SVG Export Plug-In . SVG Version: 6.00 Build 0)  -->
<svg version="1.1" id="Layer_1" xmlns="http://www.w3.org/2000/svg" xmlns:xlink="http://www.w3.org/1999/xlink" x="0px" y="0px"
	 viewBox="0 0 3000 3000" style="enable-background:new 0 0 3000 3000;" xml:space="preserve">
<g>
	<path d="M1707.5,1634.8c11.2-9,24.6-12,38.4-13.3c8.1-0.8,14.4-4.4,20.2-9.6c9.6-8.6,14.5-19.7,16.5-32.1
		c2.8-16.4,1.7-32.9-0.9-49.3c-1.5-9.8-3.4-19.5-5.2-29.5c12.7-3.4,11.5-13.5,10.8-23.6c7.5-0.6,12.7-4.1,15.9-10.5
		c0.4-0.8,1.5-1.4,2.5-1.8c5.1-2.2,7.8-6.3,9.1-11.5c1.1-4.3,2.5-8.6,2.9-13c0.9-8.7,2.7-17.7-3-25.7c-0.5-0.7-0.3-2.1,0.1-3
		c2.4-5.4,4.6-11.1,10.1-14.2c4.5-2.6,6.9-6.6,8.9-11.1c5.3-11.9,6.6-24.5,5.8-37.3c-0.6-10.5-2.2-21-3.6-31.5
		c-0.5-3.6,0.5-5.7,3.5-7.9c10.5-7.6,20.1-16.2,27.5-27c10.9-15.8,16.3-32.9,10.7-52.1c-2.4-8.3-5.9-15.9-12.4-21.8
		c-6.1-5.5-13.3-6.4-20.8-4.1c-7.4,2.3-10.8,8.1-12.5,15.4c-1.3,5.4-0.2,10.4,1.1,15.6c0.5,2.1,0.7,4.8-0.1,6.7
		c-2.3,5.4-4.6,11-7.9,15.9c-14.8,22.1-31.6,42.4-51.9,59.7c-11.7,9.9-24.6,17.9-39.2,23c-9.8,3.4-19,2.8-28.2-1.6
		c-12.4-5.9-22.2-14.8-29.4-26.3c-8.5-13.6-16.5-27.6-24.4-41.6c-8.5-15.3-18.3-29.6-32-40.6c-5.4-4.3-11.4-8.2-17.6-11.1
		c-16-7.3-32.9-7.1-49.8-3.9c-3.1,0.6-5.6,0.5-8.5-0.8c-11.9-5.1-23.9-5.3-35.6,0.3c-7.9,3.8-14.6,9.3-20.3,16
		c-16.1,18.8-26.5,40.7-34.7,63.8c-6.6,18.4-16.6,34.2-32.2,46.1c-15.2,11.7-32.3,18.1-51.7,18.2c-10.7,0-21.1-1.5-31.4-4.2
		c-27.3-7.3-50.6-21-68.6-43.2c-7.7-9.5-13.4-19.9-16.1-32c-1.4-6.1-3.6-12.2-6.5-17.8c-4.1-8.1-11.8-10.6-20.3-10.1
		c-7.7,0.4-11.3,6-13.5,12.6c-3.1,9.2-3.3,18.7-1.6,28.2c3.5,19.9,11.9,37,29.6,48.3c2.1,1.3,3.3,2.9,3.8,5.4
		c1.2,5.9,4.4,10.9,8.4,15.4c1.9,2.2,3.6,4.7,5.1,7.2c2.6,4.3,4.8,9,7.6,13.2c7.9,11.5,13.1,24,15,38c1.4,10,3.4,20,5.7,29.8
		c2.3,9.6,6.5,18.5,14.4,24.9c3.9,3.1,8.4,5.4,12.9,8.3c-0.5,3.4-1.3,6.9-1.4,10.4c-0.2,6.8,0.6,13.6,4,19.7c3.1,5.5,8,8.1,14.3,7.5
		c2.5-0.2,5.1-0.6,7.4-1.7c3.2-1.5,5.6-0.8,8,1.5c3.2,3,6.3,6,9.7,9.3c0.3-0.8,0.7-1.4,0.6-1.9c-1.1-5.3-2.3-10.6-3.5-16.2
		c1.8-0.1,3.7-0.3,4.6-0.3c2.3,2.1,3.9,3.6,5.6,5.2c-2.8,18-5.6,36.3-8.5,54.5c-0.7,0-1.2,0.2-1.5,0.1c-1.2-0.5-2.3-1-3.5-1.6
		c-16.2-8.4-30.2-19.5-42.1-33.3c-12.7-14.8-21.5-31.9-28.8-49.8c-8.9-21.9-17.4-44.1-26.6-65.9c-9-21.3-22.8-39.1-42.4-51.9
		c-4.3-2.8-9.1-5-13.6-7.4c-0.3,0.3-0.6,0.7-0.8,1c2,3.6,4.1,7.2,6,10.9c8.7,16.5,15.3,33.9,21.9,51.4c8.4,22.6,16.9,45.2,25.8,67.6
		c6,15.2,14,29.4,23.8,42.6c13.9,18.7,31.3,32.8,54.2,38.7c8.5,2.2,17.5,3,27.3,4.6c0,4.8-0.1,9.6,0,14.5c0.1,9.8,1.5,19.4,4.7,28.6
		c7.4,21.7,21.8,34.4,46.4,33.5c9.9-0.4,19.9-0.5,29.9-0.6c13.9,0,25.9,5,36.5,14c5.8,4.9,11.8,9.7,18.3,13.7
		c24.7,15.1,51.6,21.7,80.5,21.3c27.5-0.5,53.3-7.2,76.3-22.3c15-9.8,28.9-21.4,43.2-32.3
		C1696.1,1644.3,1701.8,1639.5,1707.5,1634.8z M1340.9,1497.4c0.4,2.4,0.7,3.8,1,5.2C1338,1502.3,1338,1502.3,1340.9,1497.4z
		 M1737.3,1374.9c-1.8,4.1-3.5,7.8-5,11.6c-1.4,3.7-2.6,7.4-4.4,12.5c-5.1-8-9.5-15-14.4-22.6
		C1721.9,1375.8,1729.1,1375.4,1737.3,1374.9z M1652,1637.3c-19.6,16.1-41.4,27.8-66.4,32.9c-30.4,6.2-57.9-0.7-82.9-18.5
		c-10.2-7.2-20.2-14.6-30.7-21.5c-12.8-8.5-27.3-9.6-42.1-8.6c-7.8,0.5-15.6,1.1-23.4,1.1c-10.1,0-17.1-5.4-19.2-15.2
		c-2.1-9.9-2.6-19.9-2.2-30.2c1.2-26,7.9-50.9,12.8-76.2c3.4-17.7,5.4-35.6,4.3-53.6c-0.8-13.9-4.4-27.1-11.1-39.4
		c-0.4-0.7-0.9-1.4-1.4-2c-0.1-0.1-0.4-0.1-0.9-0.2c-0.3,1.6-0.5,3.2-1.1,6.4c-3.1-8.5-5-16.2-12.8-20.5c32.3-3.2,60-15.3,81-40.1
		c3.4,1.4,6.2,3,9.2,3.6c4.9,0.8,9.8,0.3,13.9-3c1.8-1.4,3.3-2.1,5.7-1.4c6.8,2.2,12.1-0.6,16.1-5.9c2.6-3.5,4.4-7.6,6.8-12
		c5.7,0.6,10.1,3.7,13.3,8.7c6.4,10.1,9.3,21.2,9.9,33c0.6,11.4,0.7,22.8,1.8,34.2c1.3,13.7,3.3,27.2,5.1,40.8
		c0.2,1.2,0.7,2.4,1.3,4.9c3.1-7.4,5.8-13.8,8.8-20.9c2.1,3.4,3.7,6,5.3,8.7c3.2-17.4,5.1-34.8,6.2-52.3c1.1-17.4-0.7-35,2.5-52.7
		c6.4,1.8,12.4,2.4,18.1-2c5.1,5.8,11.3,5.7,18,3.3c0.6,0.9,1.3,1.5,1.5,2.2c3,10.5,17.7,11.6,24.4,5.8c1.5-1.3,2.6-3.3,5.3-2.1
		c0.5,0.2,2.3-1.5,3-2.7c2.7-4.5,5.3-9.2,7.9-13.8c1.3-2.3,2.8-4.6,4.4-7.4c3.6,5.2,6.6,9.8,9.8,14.2c5.9,8,12.2,15.6,19.8,22.2
		c10.3,8.9,22,15,35.5,17.7c0.2,1.6,0.7,3,0.6,4.4c-0.7,18.9,3.6,37,9.6,54.7c6.8,20.2,14.4,40.2,21.4,60.4
		c6.3,18.3,9.3,37.2,10.3,56.6c0.5,9.6,0.3,18.9-2.9,28c-0.8,2.4-2,4.7-3.4,6.7c-0.9,1.2-2.6,2.3-4,2.4c-22.6,0.7-41.7,9.9-59,23.7
		C1671.9,1620.3,1662.1,1629,1652,1637.3z"/>
	<path d="M2074.6,1174.7c5.4,4.3,11.6,6.2,18.2,6.4c7.5,0.3,13.1-3.2,16.2-10.1c3.1-7,3.2-14.3,2.4-21.8
		c-1.3-12.8-7.5-23.7-13.8-34.5c-3.1-5.4-5.4-10.8-7-16.8c-7.2-27.6-14.9-55.1-22.1-82.7c-6.5-25-12.2-50.1-12.7-76.1
		c-0.1-3.9-1-7.8-1.5-11.6c-0.5-0.1-0.9-0.2-1.4-0.3c-1.3,2.5-2.8,4.9-3.8,7.5c-8.5,20.6-12.8,41.9-12,64.3
		c0.6,15.2,3.3,29.8,8.2,44.1c6.8,20.3,18.7,37.4,33.6,52.4c6.6,6.6,11.2,13.8,9.7,23.7c-0.2,1.5,0.1,3,0,4.4
		c-0.5,6.8-1,13.7-1.6,21.9c-2.2-2.1-3.4-3.1-4.4-4.3c-28.6-32.1-48.1-69.4-61.9-109.9c-11.9-35-19.1-71-24.2-107.5
		c-3.7-26.3-6.9-52.8-9.8-79.2c-3.6-32.5-7.4-65-13-97.3c-3.9-22.8-11.4-44.2-24.3-63.5c-10.8-16.1-24.6-29-42-37.7
		c-1.3-0.6-2.8-0.9-4.9-1.6c2.3,4.8,4,8.7,5.9,12.5c20.2,41.5,34.3,85.1,42.5,130.5c5.7,31.6,9.6,63.4,14,95.2
		c4.9,36,10.2,71.9,17.8,107.5c11.2,51.8,30.2,100.3,58.4,145.2C2050.1,1150.2,2060.8,1163.8,2074.6,1174.7z"/>
	<path d="M949.4,1231c0.1,0-0.4-0.2-0.6,0c-10.1,9.1-16.4,20.4-17.8,34c-0.9,8.9,4.5,19.3,11.8,21.4c14,4,27.7,3.6,39.9-5.6
		c8.3-6.3,13.6-15,17.7-24.4c8.2-19,11.6-39.2,14-59.6c1.5-12.6,2.1-25.3,4-37.8c5.2-33.3,6-66.9,7.1-100.4
		c0.3-10.8-0.6-21.6-0.9-32.3c-0.5-18.8-0.9-37.6-1.3-56.5c-0.2-10.8-0.5-21.6-0.4-32.4c0.3-25.4,0.7-50.8,1.3-76.2
		c0.2-9.1,1.3-18.1,2.2-27.1c1.7-16.2,3.8-32.3,5.3-48.5c1.3-14.5,2.2-29.1,2.9-43.6c0.4-10.3,0.1-20.6,0.1-31.5
		c-1.2,0.8-1.8,1.1-2.1,1.5c-10.1,14-18.1,29.2-22.9,45.8c-7.3,25.1-10.5,50.9-11.2,76.9c-0.7,23.9,0.4,47.8,0.7,71.7
		c0.1,4.2,0.2,8.5,0.5,12.7c1.1,19.6,3.1,39.2,3.1,58.8c0.1,30,1.8,60.1-0.6,90.1c-1.3,16.6-2.1,33.3-3.9,49.9
		c-3.1,27.7-6.8,55.3-10.5,82.9c-2,14.9-5.7,29.5-12.2,43.2c-3.4,7.2-7.6,13.7-14.1,18.4c-2.7,1.9-5.6,4.5-9.2,3.1
		c-4.1-1.7-4.5-5.8-5.1-9.6c-0.1-0.8-0.1-1.7,0-2.5C947.8,1246,948.6,1238.5,949.4,1231z"/>
	<path d="M2061.9,715.5c14,17.2,28.2,34.3,40.1,53.1c14.6,22.9,23.3,47.8,25.4,74.9c1.5,20.3-0.6,40.2-6.4,59.6
		c-7.2,24.1-15.8,47.8-23.5,71.7c-3.2,9.8-7.3,19.3-8.2,29.8c-1.3,15.6-2.7,31.1-1.2,46.8c0.4,4.3,0.2,8.8,4.2,13.8
		c1.9-3.7,3.4-6.4,4.6-9.3c3.1-7.2,5.9-14.5,8.9-21.7c13.7-32.8,27.7-65.4,38.1-99.5c8-26.2,12.9-53,13.6-80.3
		c0.3-10.5-0.8-21.1-2.2-31.6c-3.1-23.8-11.1-46-24.1-66.3c-16.5-25.8-38.9-45-66.7-57.8c-6.8-3.1-13.9-5.7-20.9-8.5
		c0.2,2.4,1,3.8,2,5C2051,702.1,2056.4,708.8,2061.9,715.5z"/>
	<path d="M1166.8,540.8c18.8-4.6,36.3-12.7,53.8-20.6c15.2-6.8,30.4-13.9,46.1-19.7c24.9-9.3,51.1-13.5,77.2-17.6
		c18.6-3,37.2-5.6,55.7-9.1c13.9-2.6,27.6-6.6,41.5-9.3c9.9-1.9,20-2.9,29.8,1c2.9-3.3,1.1-5.5-1.4-7.4c-6.9-5.1-14.6-8.4-22.9-10.7
		c-22-5.9-44-4.3-66-0.6c-14.6,2.4-29,5.7-43.7,7.9c-27.3,4.1-54,10.3-79.9,19.5c-31.4,11.3-62.6,23.3-93.6,35.7
		c-22.4,8.9-45,15.9-69.3,16.5c-2.6,0.1-5.2,0.8-9.5,1.5c3.4,2.1,5.3,3.5,7.5,4.6C1116,544.3,1140.8,547.1,1166.8,540.8z"/>
	<path d="M879,890.9c12.4-19.8,29.6-35.3,46.4-51.1c16-15,32.4-29.8,46.9-46.4c17.5-20,32.9-41.4,43.4-66
		c11.9-27.6,16.6-56.2,11.8-86.1c-0.5-3.3,0.4-5.7,2.3-8.1c13.9-18.1,28.1-36.1,44.7-51.9c10.3-9.8,20.8-19.4,34.2-24.8
		c0.4-0.2,0.6-0.9,1.1-1.9c-4-1-7.6-2.4-11.3-2.9c-15.6-1.9-29.9,1.8-42.6,11.1c-20.2,14.7-30.2,35.4-33.8,59.6
		c-0.8,5.4-0.5,11.1-2.1,16.2c-3.6,11.7-8.1,23.1-12.3,34.7c-6.8,18.7-14.8,36.9-23.8,54.7c-12.4,24.6-32,43-51.4,61.6
		c-13,12.5-26,24.9-36.6,39.6c-13.5,18.6-21.1,38.9-18.5,62.9C878.4,891.3,878.8,891.2,879,890.9z"/>
	<path d="M1073.9,702.7c-1.6,1.5-2.4,2.1-3.1,2.9c-0.9,0.9-1.7,1.9-2.4,2.9c-9.2,11.7-14.4,25.3-18.2,39.5
		c-7.1,26.3-8.9,53.3-9.9,80.3c-0.7,18.2-0.9,36.4-1.3,54.6c-0.4,16.1-0.7,32.2-1.3,48.2c-0.3,9.1-0.9,18.2-1.8,27.2
		c-2.6,25.6-6,51.2-8.1,76.8c-1.8,22.6-0.6,45.2,2.5,67.7c0.3,2.4,1.2,4.7,1.8,7.1c0.5,0,1,0.1,1.5,0.1c0.8-1.8,1.9-3.6,2.5-5.5
		c7-23,13.8-46.1,17.9-70c5.6-32.1,7.8-64.6,9.7-97.1c1.2-20.7,1.7-41.4,2.6-62.1c0.7-15,1.5-30,2.5-44.9
		c1.3-19.2,2.8-38.3,4.2-57.5c0-0.6,0.2-1.3,0.2-1.9c0-9.9,0-19.8,0-29.7c0-10.3-2.8-20.6-0.6-30.9
		C1073.1,708.2,1073.4,705.9,1073.9,702.7z"/>
	<path d="M1691.6,814.1c0.3,5.6,3.4,7.8,9,6.6c5.3-1.2,9.2-4.3,11.7-9c1.8-3.3,3.1-6.9,4.7-10.2c0.4,0,0.6-0.1,0.7,0
		c1.2,0.5,2.3,1,3.5,1.5c12.9,5.4,26.1,8.9,40.2,6.7c7.3-1.1,14.5-3,21.7-4.7c8.6-2,16.4-5.5,21.9-12.9c2-2.6,5-3,8-3.2
		c3.2-0.2,6.4,0,9.5-0.1c1.7-0.1,3.4-0.6,5.5-1c-0.7-1-0.9-1.5-1.2-1.7c-14.9-8-29.8-16.1-44.7-24.1c-1.5-0.8-3.4-1.3-4.2-2.5
		c-3.4-5.2-6.5-10.5-9.8-15.8c13.3,8.8,26.7,16.8,43.9,16.8c-0.7-1.1-0.9-1.7-1.3-2.1c-5.8-5.5-11.7-10.9-17.5-16.6
		c-4.1-4-7.8-8.3-11.8-12.4c-9.2-9.5-20.6-14.9-33.7-15.5c-5.2-0.2-10.8,0.1-15.9,3.9c3.3,2.2,6.2,4.1,9.1,6c-1.2,0.6-2,0.4-2.8,0.3
		c-16.8-2.9-27.8,7.3-31.6,16.8c-0.9,2.2-1.3,5.1-0.7,7.3c0.4,1.3,3.1,2,5.1,3.2c-6.4,9.3-9.7,19.7-9.1,31c0.2,4.7-1,8.4-3.8,12.3
		C1693.8,800.2,1691.3,806.8,1691.6,814.1z M1781.6,783c6.3,1.9,12.4,3.8,18.4,5.6c0,0.2-0.1,0.4-0.1,0.5c-6.5,0-12.9,0-20.4,0
		C1780.5,786.3,1781,784.8,1781.6,783z M1761.5,769.7c-0.1,0.6-0.2,1.1-0.3,1.7c-2.8,0.8-5.6,1.7-8.5,2.3
		c-8.8,1.7-13.4-2.4-13.3-12.5C1748.1,761.3,1754.5,766.2,1761.5,769.7z"/>
	<path d="M1502,457.4c21.1-2.8,42.2-2.4,63.3-0.9c28,2,56,5,84,7.4c22.4,1.9,44.7,1.7,67.1-1.2c27.2-3.5,51.1-14.3,72.4-31.3
		c4.2-3.3,7.8-7.3,11.7-10.9c-9.3,1.2-17.8,3.8-26.5,5.3c-18.5,3.1-37.1,6.1-55.7,8.4c-13.2,1.7-26.5,3.2-39.8,2.9
		c-18.1-0.4-36.3-2.1-54.3-4.3c-24.6-3-49.1-5.6-74-4.8c-17.8,0.5-34.9,3.9-50.7,12.3c-10.5,5.6-19.1,13.2-24.6,25.7
		c2.8-1.2,4.4-1.7,5.8-2.4C1487.5,460.2,1494.5,458.4,1502,457.4z"/>
	<path d="M1248.2,788.5c-4.2,6-7,13-10.2,19.6c-1.6,3.2-3,6.3-6,8.7c-4.1,3.3-7.7,7.3-11.2,11.2c-9.3,10.4-18.4,21-30.8,28
		c-0.3,0.2-0.3,0.7-0.8,1.7c2.4,0.7,4.8,1.9,7.1,1.9c5.4,0,11,0,16.3-1.2c5.3-1.2,10.4-1.8,15.7-1.3c8.8,0.8,17.6,1.8,26.5,2.7
		c10.5,1,21.1,1.4,31.6-0.3c12.4-2,23-6.9,30.9-16.9c1-1.2,2.1-2.3,3.2-3.6c1.3,2.4,2.2,4.6,3.5,6.5c1.5,2,3.4,4.7,6.1,3.5
		c2-0.9,4-3.1,5-5.2c3.2-7.2,0.8-16.3-6.3-20.6c-4.9-3-7.1-7.1-9.4-11.9c-4.9-10.5-11.6-19.7-22.9-24.4c-0.4-0.2-0.6-0.9-0.9-1.4
		c5.6-2.5,5.6-2.5,7.6-5.2c-0.3-0.5-0.6-1.1-1.1-1.5C1285.8,768.4,1260.7,770.5,1248.2,788.5z M1282,819.6c-3.7,1.6-7.3,0.4-9.3-2.8
		c-2.8-4.4-0.8-9.1,4.3-9.9c4.7-0.7,9,0.8,13.5,3.4C1289.1,815.1,1286.1,817.9,1282,819.6z"/>
	<path d="M1621.9,880.1c-15.9-7-32.8-9.5-50-10.2c-12.7-0.5-25.4,0.5-37.9,2.4c-30.2,4.6-58.8,14-84.7,30.6
		c-12.4,7.9-23.3,17.5-31.6,29.9c-3,4.5-5,9.3-4.6,14.9c0.4,4.9,2.5,8.3,8.4,9.8c-2.7-7.6-2-10.2,3.7-14.2c1.7-1.2,3.5-2.5,5.4-3.3
		c25.4-10.9,50.5-22.8,76.8-31.6c18-6,36.6-9.4,55.5-8.7c15.6,0.6,31.2,2.5,46.6,4.8c18.6,2.8,36.3,8.4,51.5,20.1
		c0.5,0.4,1.1,0.5,1.7,0.7c0.1-0.5,0.4-0.9,0.4-1.3c-0.2-1-0.5-2-0.9-3C1654.8,901.4,1640.7,888.4,1621.9,880.1z"/>
	<path d="M1916.2,1841.2c9.1,8.3,19.8,13.5,33.8,14.6c-1.7-2-2.3-2.8-3-3.5c-8.8-8.8-15.1-19.3-19.4-30.9
		c-9.8-26.1-12.1-53.4-12.5-81c0-2.5,0.6-5,0.8-7.5c1.5-16.8,2.7-33.7,4.6-50.5c2.6-23.9,5.7-47.8,8.4-71.6c0.3-2.6,0-5.3,0-9.3
		c-1.5,1.7-2.2,2.4-2.7,3.2c-4.4,7.2-9.1,14.3-13,21.8c-19.4,36.9-27.3,76.6-28.1,117.9c-0.2,12.2,1,24.5,2.1,36.6
		C1889.1,1804.7,1898.5,1825,1916.2,1841.2z"/>
	<path d="M917.8,1124.3c9.7,7.5,19.7,14.5,30.6,20.3c0.4-0.3,0.8-0.6,1.2-0.9c-4.6-9.5-8.9-19.1-13.7-28.4
		c-9.6-18.5-21.8-35.2-34.7-51.5c-8.7-11-16.5-22.5-22.1-35.5c-7.3-17-9.8-35-10.7-53.1c-0.9-19.4-0.5-38.9,1.9-58.3
		c0.7-5.8,1.7-11.5,2.6-18c-1.1,0.9-1.7,1.4-2.2,2c-2,2.5-4.1,4.8-5.9,7.5c-12.8,19.5-19.3,41.4-21.5,64.3
		c-3.1,31.9,4.2,61.7,19.9,89.6C877,1086.8,895.6,1107.2,917.8,1124.3z"/>
	<path d="M1673.6,972.7c-2.1-7.8-5.6-14.6-11.7-19.9c-1.5-1.3-3.3-2.2-4.9-3.4c-0.4,0.4-0.7,0.8-1.1,1.2c5.5,10.5,4.6,21-0.3,31.2
		c-2.4,5.1-5.6,10-8.8,14.6c-4.3,6.1-9.6,11.3-15.9,15.4c-8.2,5.3-13.9,3.4-17.1-5.9c-1.3-4-2.1-8.2-2.7-12.4
		c-0.7-4.3-0.1-7.9,3.8-11.2c6.1-5.1,9-12.2,9.9-20c0.9-7.9-3.4-13.1-11.3-13.9c-4.7-0.5-9.2,0.2-13.6,2.2
		c-9.1,4.1-13.8,11.7-16.7,20.5c-3.2,9.9-3.9,20.1-3,30.6c0.8,10.2,3.5,19.5,8.9,28.1c10.3,16.3,26.2,22.1,44.4,15.9
		C1660.6,1036.7,1681.4,1002.3,1673.6,972.7z"/>
	<path d="M1411.1,1001c5.8,20.6,20.1,33.9,38.9,42.6c7.4,3.4,15.2,5.3,23.5,4.5c26.3-2.5,43-29.9,38.8-53.4
		c-2.4-13.3-7.7-25.5-16.9-35.7c-5.3-5.9-11.7-9.7-19.4-11.2c-6.3-1.3-11.8,1-15.9,5.9c-7,8.3-7,21.8-1.2,28.3
		c2.8,3.1,6,5.9,9.2,8.6c2.6,2.2,5.6,3.9,8,6.3c4.7,4.8,3.8,11.5-2,15.1c-4.9,3.1-10.3,3.7-15.9,2.5c-12.3-2.7-22.9-8.7-32-17.3
		c-6.2-5.9-11.4-12.4-12.9-22.5C1409.1,983.9,1408.8,992.5,1411.1,1001z"/>
	<path d="M952.1,1198.5c0,1.7,0,3.4-0.1,5.1c-0.2,5.7-0.6,11.4-0.7,17.1c0,1.2,0.8,2.5,1.6,5c2.4-2.9,4.4-4.8,5.7-7.1
		c4.3-7.8,8.9-15.5,12.4-23.6c16.6-39,17.2-79,5.3-119.2c-5.5-18.4-16.8-33.1-33.5-43.2c-11.6-7-24.2-9.4-38.3-6.2
		c5.8,3.4,11.3,6.2,16.2,9.6c15.2,10.6,23.1,26,27.7,43.5c3.4,13,4.4,26.2,4.8,39.5c0.3,10.3-0.6,20.7-0.7,31.1
		C952.3,1166.3,952.2,1182.4,952.1,1198.5z"/>
	<path d="M1453.1,1082c-8.2-5.2-16.3-10.5-24.9-16.1c0,1.5-0.2,2.3,0,3.1c4,16.6,12.4,30.5,25.4,41.5c20.4,17.2,44.3,25.2,70.8,25.4
		c8,0.1,16-1,24.2-1.6c0.6,1.2,1.3,2.7,2.3,4.6c0.8-2.6,1.4-4.5,1.9-6.2c3.9-1.7,7.4-3.2,11-4.7c-0.1-0.3-0.2-0.6-0.3-0.9
		c-3.1-0.4-6.1-0.8-9.2-1.2c-0.2-0.9-0.5-1.5-0.4-2.1c0.5-2.9,1-5.8,1.7-8.7c3.8-17.1,8.3-34.2,7.2-51.9c-0.5-7.8-1.1-15.6-1.4-23.4
		c-0.3-8-0.2-16-0.3-23.9c0-1.6-0.5-3.1-0.8-5c-6.1,1.1-8.8,5.4-11.1,9.5c-6.5,11-8.8,23.2-9.3,35.8c-0.8,18.7,1.5,37.1,5,55.4
		c0.8,4.1,1.2,8.2,1.9,12.9c-8.8-1.1-16.3-3.7-23.9-6.4C1497.9,1109.4,1475.3,1096.2,1453.1,1082z"/>
	<path d="M1429.3,1905.3c12.4-14.6,17.2-32,17-50.6c-0.1-13.6-3.3-26.9-8.7-39.4c-7.1-16.5-15-32.7-22.5-49
		c-7.7-16.8-14.2-33.9-14.6-54.1c-1.4,1.3-2.1,1.8-2.5,2.4c-1.6,2.7-3.3,5.4-4.6,8.3c-7.5,16-7.7,32.7-4.2,49.6
		c4.2,20.5,13.2,39.2,22.8,57.6c9.9,19,16.7,38.8,15.7,60.6c-0.3,5.6-1.3,11.3-2,17.4C1427.1,1907.1,1428.4,1906.4,1429.3,1905.3z"
		/>
	<path d="M1890.2,1288.6c-5,12.3-10.3,24.6-15.8,36.7c-9.8,21.6-15.4,44.3-16,68c-0.3,12.2,1.5,24.4,6,36c0.2,0.6,0.5,1.1,0.6,1.6
		c3.5-10.7,6-21,10.2-30.6c7.4-17.3,15.8-34.1,23.8-51.2c9.5-20.5,16.5-41.7,14.9-64.8c-0.7-10.2-1.8-20.3-8-28.9
		c-3.5-4.8-8.1-7.3-14.6-5.8c5.1,3,5,7.7,4.7,12.4C1895.5,1271.3,1893.6,1280.2,1890.2,1288.6z"/>
	<path d="M1724.5,1879.5c0.4-0.3,0.8-0.6,1.1-0.9c-0.7-1.6-1.5-3.3-2.2-4.9c-2-4.6-4.4-9.2-5.9-14c-5.2-16.5-6.8-33.5-7.2-50.6
		c-0.5-19.1-0.1-38.1-0.1-57.2c0-17.1-2-34.2-4.3-51.1c-0.7-5.4-2.1-10.7-3.5-17.4c-1.5,3-2.4,4.6-3.1,6.3
		c-12.8,32.8-20.7,66.4-18.5,102c1.6,26.4,8.9,50.7,25.4,71.7C1711.3,1870,1716.8,1876,1724.5,1879.5z"/>
	<path d="M1996.9,1181c3.6-15.2,7.2-30.5,9.9-45.8c2.2-12.1,2.3-24.4-1.5-36.4c-2.7-8.4-7-15.6-15.2-22c1.6,16.7-1.5,31.3-6.4,45.7
		c-4,11.6-8.1,23.2-11.6,34.9c-4.1,13.8-4.8,27.8-2.7,42.1c2.8,18.8,10.9,35.5,20.8,51.4c0.7,1.1,1.7,2,2.5,2.9
		c0-12.1-0.3-23.9,0.1-35.7C1993.1,1205.7,1994,1193.3,1996.9,1181z"/>
	<path d="M1160.4,1483.1c0.5-0.1,0.9-0.1,1.4-0.2c-0.1-1-0.1-2.1-0.2-3.1c-3.3-23.2-7.2-46.3-13.2-69c-8-30.1-19.6-58.5-38.2-83.7
		c-2.5-3.4-5.4-6.7-8.1-10c-0.5,0.3-0.9,0.6-1.4,0.8C1100.2,1380.3,1125.1,1433.6,1160.4,1483.1z"/>
	<path d="M1978.7,1307.9c-1.4-14.3-4.6-27.9-11.8-40.5c-3.2-5.7-6.9-11.1-13.4-16c0,2.5-0.1,3.8,0,5c1.8,12.5-0.3,24.8-1.2,37.2
		c-0.9,11.2-2.1,22.3-2.5,33.5c-0.5,13.3,0.9,26.6,3.8,39.7c3.4,15.1,9.4,29,20,40.5c1.5,1.6,3.2,3.1,5.1,5
		c-0.9-10.3-2.2-19.7-2.4-29.1c-0.2-9.7,0.3-19.5,1.3-29.1C1979,1338.7,1980.2,1323.4,1978.7,1307.9z"/>
	<path d="M1939,1597.1c1.1,1.4,2.5,2.6,4.6,4.9c-2.4-48.1-5.9-94.4-12.6-141.9c-2.3,2.9-3.6,4.5-4.8,6.1
		c-13.1,19.2-17.5,40.4-15.2,63.3C1913.6,1555,1923,1577.4,1939,1597.1z"/>
	<path d="M1969,1456.6c3.1-24.9-1.5-47-14.8-67.4c-4.6,6.8-5.3,9.8-6.3,25.9c-1.8,2.2-3.5,3.7-4.6,5.6c-7.5,12.5-10,26.1-9.2,40.6
		c1.2,21.5,9.4,39.7,24.3,55c0.9,0.9,2.1,1.6,3.6,2.7c1.4-28.6-4.1-55.6-9.5-82.8C1957.2,1443.4,1961.6,1450.8,1969,1456.6z"/>
	<path d="M1645.4,1051.9c-14.4,13.2-26.4,28.6-38.9,43.5c-10.4,12.5-22,23.4-36.4,31.1c-0.8,0.4-1.6,1-2.9,1.9
		c41.5,5.6,99.5-47.7,103.2-94.4c-3.8-0.7-6.1,1.5-8.3,3.4C1656.5,1042.1,1650.9,1046.9,1645.4,1051.9z"/>
	<path d="M1439.9,2028.3c5.9-6.6,11.7-13.3,17.6-20c14.1-16,23-34.4,25.7-55.6c1.5-11.8,1.4-23.6-2.5-35.7
		c-22.6,24.7-49.3,92-45.6,115.5C1436.9,2030.9,1438.6,2029.8,1439.9,2028.3z"/>
	<path d="M2041,698c-9.8-19.4-20-38-34.1-54.4c-11.3-13.1-24.3-24.1-40.2-31.3c-3.2-1.5-6.6-2.6-11-4.4
		C1967.2,649.9,2007.4,690.1,2041,698z"/>
	<path d="M1053.7,1147.3c-0.4-4.1-0.3-8.3-0.5-12.4c-18.9,18-25.6,40-21.7,65c4.2,26.6,26.4,47.4,40.7,50.3c-1-2.3-2-4.3-2.9-6.4
		c-5.2-12.6-8.2-25.7-9.6-39.2C1057.8,1185.5,1055.7,1166.4,1053.7,1147.3z"/>
	<path d="M1903.6,1393c-0.2-4.5,0.3-9.1-2-14c-30.7,36.4-39.7,77-27.2,122.1c3.9-8.8,7.8-17.8,11.8-26.5
		C1898.2,1448.7,1905,1421.7,1903.6,1393z"/>
	<path d="M1633.4,2092.9c0.6-1.8,1.2-3.3,1.6-4.9c1.7-7,3.4-13.9,4.9-20.9c4.2-19.3,6.1-38.8,2.8-58.4c-1.4-8.7-3.2-17.4-7.2-26.3
		C1613.6,2015.7,1613.8,2056.2,1633.4,2092.9z"/>
	<path d="M1782.2,946.7c-4.7-4.9-9.3-9.9-14.2-14.5c-1.1-1-3.6-1.3-5-0.8c-0.9,0.4-1.4,3-1.2,4.5c0.5,3.8,1.3,7.5,2.2,11.2
		c4.6,19,11.9,36.6,26.9,50.1c8.4,7.6,17.6,13.6,28.9,16.2c-4.4-8.5-8.8-16.6-12.8-24.9C1800,973.8,1793.6,958.7,1782.2,946.7z"/>
	<path d="M1236.6,1052.8c0.4,0.2,0.8,0.4,1.2,0.6c8.8-9.1,17.9-17.9,26.4-27.3c13.1-14.6,22.2-31.3,25.7-50.9
		c0.4-2.5,0.4-5.1,0.7-8.8C1258.7,987.7,1240,1015.6,1236.6,1052.8z"/>
	<path d="M1962.6,1927.2c11-36.4-17.1-75-53.2-77.2c0.6,1.3,1,2.5,1.6,3.5c6.8,10.2,13.6,20.4,20.6,30.4
		c9.5,13.7,19.2,27.3,28.9,40.9C1960.9,1925.4,1961.5,1926,1962.6,1927.2z"/>
	<path d="M1299.5,1990.7c18.5-24,28.3-64.7,18.5-88.4c-2.6,3.2-4.9,6.1-7.2,9.1c-6.4,8.3-9.7,18.1-13.6,27.6l0.1-0.1
		c0,0.1-0.1,0.1-0.1,0.1c-0.1-1-0.4-2.1-0.1-3c2.5-8.9,2.6-18,2.3-27.1c-0.2-5.4-0.4-10.8-3.1-15.9c-19,19.9-27.3,57.4-19.8,81.9
		c6.7-8.8,12.6-17.8,16.7-27.8c1.2-2.9,2.8-5.5,4.2-8.3c-0.9,8.8-2.4,17.6-2.5,26.4C1294.7,1973.8,1296.2,1982.4,1299.5,1990.7z"/>
	<path d="M1336.4,2010.3c20-22.2,27.2-65.2,11.2-91C1330.9,1948.1,1331.8,1978.4,1336.4,2010.3z"/>
	<path d="M1123.1,1721.3c-33.9,7.7-56.7,46.1-50.3,70.6C1100.5,1769,1122.6,1738,1123.1,1721.3z"/>
	<path d="M1649.9,2043.7c2.2,15.4,8.9,29.2,17.3,43.7c9.4-32,9.1-61.2-11.7-89C1650,2013.9,1647.8,2028.7,1649.9,2043.7z"/>
	<path d="M983.9,1534.1c-21.3,7-42.6,29.6-59.2,63.1C953.6,1594.8,985.7,1560.3,983.9,1534.1z"/>
	<path d="M1007.4,1569.2c-9.8,1.3-17.8,5-25.5,9.6c-19.8,11.9-30.4,31.8-43.8,49.9C966.5,1625.8,992.7,1602.9,1007.4,1569.2z"/>
	<path d="M1401.9,2046.7c20.4-17.2,33-56,22.4-82.6C1408.7,1976.3,1395.9,2013.4,1401.9,2046.7z"/>
	<path d="M1555.7,2057.1c16.9-21.3,20.4-69.1,6.4-85.4C1544.5,1998.9,1545.3,2027.4,1555.7,2057.1z"/>
	<path d="M1042.7,1721.2c11.5-8.4,20.4-19,27-31.5c2.8-5.3,5.1-10.9,6-17.4c-26.1,8.2-54.5,34.4-57.8,66.2c0.9-0.3,1.7-0.5,2.3-0.9
		C1027.7,1732.1,1035.2,1726.6,1042.7,1721.2z"/>
	<path d="M1107.3,1828.1c20-19.5,40.4-51,42.8-72.9C1120.1,1763.5,1100.1,1800.7,1107.3,1828.1z"/>
	<path d="M951.5,1303.4c-12.3,25.4-18.5,52-21.6,79.8C953.4,1373,972.4,1331,951.5,1303.4z"/>
	<path d="M1795,2094.5c2.3,1.4,4.6,2.7,7.6,4.5c-0.2-1.8-0.2-2.6-0.3-3.3c-3.6-15.7-11-29.6-20.7-42.4c-6.3-8.3-12.5-16.5-15.9-26.4
		c-0.1-0.2-0.7-0.3-1.2-0.5c-3.4,3.6-5.2,8.1-5.7,12.9c-1.4,14,2.7,26.2,12.4,36.6C1778.1,2083.4,1786.4,2089.1,1795,2094.5z"/>
	<path d="M1504.5,2056.1c17.6-23.9,20.7-64.2,10.8-81.9C1496.8,1992.3,1493.5,2030.4,1504.5,2056.1z"/>
	<path d="M1730.5,1967.3c7.9-7.8,11.2-16.8,10.6-26.9c-1.4-22.7-14.8-38.2-32.8-52.5c-0.2,4.1-0.7,7-0.5,9.8
		c0.6,9.4,3.6,18.2,7.2,26.7c4.3,10.1,8.6,20.2,12.6,30.4C1729,1958.7,1729.5,1962.8,1730.5,1967.3z"/>
	<path d="M1143.1,1186.9c-14,7.9-21.1,20-22.6,35.3c-1.3,13.1,5.6,34.5,16.9,41.6C1142.7,1238.3,1141,1212.5,1143.1,1186.9z"/>
	<path d="M1697.7,2007.4c-3.9,9.2-4.3,18.7-2.9,28.6c2.8,19.4,14.7,32.9,28.5,45.9c4-21-6.6-53.9-24.4-76.6
		C1698.5,2006.1,1698,2006.7,1697.7,2007.4z"/>
	<path d="M1237,781.5c-11.7,4.5-20.6,12.6-27.3,22.8c-6.8,10.4-12.9,21.3-19.3,32c-0.6,1-0.8,2.3-1.3,3.5c3.2,1.9,5.5,0.2,7.9-1
		c15.5-7.8,27-20,37-33.9c5.6-7.9,10.9-16,15.1-25.3C1244.5,778.8,1240.7,780,1237,781.5z"/>
	<path d="M1588.4,1973.7c-0.9,1.6-2.2,3.1-2.5,4.7c-1.1,5.6-2.2,11.2-2.8,16.8c-1.8,19.4,4.9,36.5,14.2,52.9
		c0.4,0.7,1.1,1.1,2.5,2.3c4.6-14.3,7.2-28.1,4.7-42.5C1602.5,1996.9,1594,1977.7,1588.4,1973.7z"/>
	<path d="M1368.8,2018.3c15.9-14.4,22.9-53.7,9.9-78.3C1363.7,1964.9,1361.3,1990.7,1368.8,2018.3z"/>
	<path d="M1889.8,1882.5c10.5,27.2,34.1,53.3,49.8,55.2C1933.8,1904.1,1912.4,1884.4,1889.8,1882.5z"/>
	<path d="M1495.2,1969.2c-20.9,10.9-28.8,46.7-20.7,69.7C1490.1,2026.7,1500,1989.1,1495.2,1969.2z"/>
	<path d="M1864.2,2008.5c-5.1-26.2-15.7-48.4-41.2-61C1821.3,1971,1844.2,2005,1864.2,2008.5z"/>
	<path d="M1749.1,2079.9c3.1,1.8,6.3,3.6,10.5,1.1c-0.4-1.6-0.7-3.2-1.3-4.7c-1.5-3.9-3.4-7.7-4.7-11.7c-2-6.2-3.4-12.6-5.3-18.9
		c-2.9-9.5-6.1-18.9-12-27.7c-6.3,7.9-10,25.3-6.1,37.4C1733.6,2066,1739.6,2074.3,1749.1,2079.9z"/>
	<path d="M937.9,1537.9c10.2,0.4,18.2-4.4,23.8-12.3c9.7-13.7,10.6-29.1,7.6-46.6c-2.9,3.5-5.1,5.7-6.7,8.3
		c-5.2,8.4-10.2,17.1-15.4,25.6c-5.1,8.3-10.3,16.5-20.1,20.2C931.2,1536.9,933.2,1537.8,937.9,1537.9z"/>
	<path d="M923.6,1429c8.5-0.2,23.4-11.2,30.2-21c6-8.7,11.2-27.1,6.1-39.1c-2.9,3.4-5.7,6.9-8.6,10.1
		c-10.9,11.7-20.1,24.6-25.4,39.8C924.9,1421.8,924.5,1425.1,923.6,1429z"/>
	<path d="M1851.6,454.7c-25.3-10.3-50.3-5.1-75.8-1C1792.5,471.1,1834.1,471.7,1851.6,454.7z"/>
	<path d="M1830.3,495.5c23.7,15,47.4,19.8,74.1,9.8C1881.4,487.5,1857,487.3,1830.3,495.5z"/>
	<path d="M1454.9,1879c-15,22.6-19.2,51.3-12.2,68C1462.4,1925.1,1466.2,1898,1454.9,1879z"/>
	<path d="M1171.5,1866.4c7.7-11.9,15.7-23.5,22.8-35.7c4.1-7,7.1-14.7,7.3-23.3c-19.3,3.2-43.6,33.3-31.2,59.4
		C1170.8,1866.7,1171.3,1866.7,1171.5,1866.4z"/>
	<path d="M1012,1607.9c-13.3,0.6-35.9,29.2-41.4,52.6C993,1656.4,1016.5,1626.1,1012,1607.9z"/>
	<path d="M1890.4,551.2c6.3,18.8,41,30.9,64.1,22.5C1944.6,559.2,1908.4,548.4,1890.4,551.2z"/>
	<path d="M1211.8,869.5c-3.7-5.1-8.1-6.8-13.1-7.2c-24-1.9-39.1,19.6-40.5,35.7c-0.2,1.8,0.2,3.6,0.3,5.8
		c10.8-7.8,21.1-15.1,31.1-22.7C1196.2,876.1,1202.7,871.1,1211.8,869.5z"/>
	<path d="M1778.7,1997.9c-2.9,23.2,11.1,46.8,35.1,57C1810.1,2031,1798.7,2012.3,1778.7,1997.9z"/>
	<path d="M960.6,1415.5c-14.5,16.1-25.5,33.6-36.8,51.5C945.8,1469.1,968,1446.7,960.6,1415.5z"/>
	<path d="M1860.7,518.6c-2.5,0.4-5.1,0.8-8.1,1.3c13.7,15.9,47.6,24,62.9,15c-1.2-1.6-2.1-3.6-3.6-4.7c-2.7-2-5.7-3.6-8.8-5
		C1889.7,518.5,1875.6,516.1,1860.7,518.6z"/>
	<path d="M963.9,1445.9c-13,12.3-34.3,42.1-35.8,50.3C954.1,1495.9,972.6,1468.8,963.9,1445.9z"/>
	<path d="M1044.1,1753.7c18.6-12.3,35.6-24.8,43.1-46.6C1064.3,1707.9,1044.2,1729.8,1044.1,1753.7z"/>
	<path d="M1836,2026.2c-1.3-21.8-15.4-42.7-33.6-48.2C1800.3,1994.8,1817.9,2020,1836,2026.2z"/>
	<path d="M1815.6,472c-1.4,0.3-2.5,1.8-3.8,2.8c9.9,11,40.9,12.9,59.6,3.8c-0.9-0.8-1.3-1.3-1.8-1.6
		C1852.4,466.9,1834.1,467.7,1815.6,472z"/>
	<path d="M1163.3,1783.6c-16.8,6.2-29.7,30.3-25.9,51.7C1152.7,1820.6,1163.6,1805.2,1163.3,1783.6z"/>
	<path d="M1885,1965.7c-3.4-21.9-16-38.5-33.9-44C1849.6,1935.8,1869.1,1963.6,1885,1965.7z"/>
	<path d="M1846.5,792.7c-12.4-5.4-24.7-5.1-35.9,3.3c-1.4,1-3.4,2-2.3,4.8c18.2,2.9,36.5,5.8,55.6,8.9
		C1860,801.1,1854,795.9,1846.5,792.7z"/>
	<path d="M1202.7,1886.1c16.3-10.7,25.1-39.3,19.7-50.3C1208.6,1842.9,1198.4,1868.2,1202.7,1886.1z"/>
	<path d="M1551.8,1151.5c-11.1,15.4-1.5,42.9,11.8,55.9C1568,1191.3,1561.3,1164.4,1551.8,1151.5z"/>
	<path d="M1040.7,1645c-19,0.3-37.8,17.3-38.2,37.3C1019.8,1674.3,1034.3,1663.9,1040.7,1645z"/>
	<path d="M1711.4,724.1c8.8-9.1,12.2-23.3,7.9-31.2c-5.1,0.1-4.9,6.1-8.5,8c-1.7-3.5-0.7-8.1-5.1-9.8c-6.9,6.8-9.3,27.4-4.1,37.6
		c2.3-3.2,4.4-6.2,6.6-9.1C1709.3,721.1,1710.2,722.4,1711.4,724.1z"/>
	<path d="M1874.7,1906.9c-2.3,14.7,14,33.5,30.2,38.4C1904,1929.3,1890.4,1910.1,1874.7,1906.9z"/>
	<path d="M1115.3,1158.5c-9.6,14.6-14.9,29.6-13.5,47C1118.5,1197.4,1124.8,1173,1115.3,1158.5z"/>
	<path d="M1253.5,1909c5.8-14.7,14-28.6,11.2-45.8C1245.4,1875.4,1243.2,1901.2,1253.5,1909z"/>
	<path d="M1290,726.4c-9.8,12.2-5.9,33.4,6.7,37.4C1297.4,750.8,1296.3,738.3,1290,726.4z"/>
	<path d="M1312.3,762.9c-2.3-10.4-4.5-20.6-6.9-31.2c-6.4,3.4-8.2,6.9-7.2,14.4C1299.3,754.2,1305.2,761.5,1312.3,762.9z"/>
	<path d="M660.5,2353.2c0.9-4.3,1.4-8.6,1.4-12.6c0-32.7-30.3-52-61.4-52c-5.9,0-11.8,0.7-17.6,2.2c17.4-12.4,38.6-26.6,49-44.5
		c6.6-11.5,9.5-21.5,9.5-30.1c0-37.1-49.5-49.5-81.7-49.5c-24,0-49.9,2.2-75.9,2.2c-9.9,0-19.9-0.4-30-1.3
		c9.7,9.7,13.3,51.1,13.3,98.5c0,68.7-7.4,149.7-14.2,163.1c0,0,10.2-3.2,30.3-3.2c7.7,0,17,0.4,27.6,1.8c8.8,1.1,17.8,1.8,27.1,1.8
		C590.5,2429.5,648.1,2410.4,660.5,2353.2z M519.6,2301.7c0-34.1,2.3-67.7,10.4-91.2c7.5-22.4,21.2-36.6,32.5-36.6
		c9.7,0,17.4,10.8,17.4,36.4v2.5c-1.4,90.6-45.2,91.5-57.4,164.9C521.1,2354.8,519.6,2328.1,519.6,2301.7z M533.4,2417.8h-8.3
		c1.4-23.7,18.1-106.6,54.9-106.6c14.4,0,24.6,14,24.6,35.9C604.7,2378.1,583.3,2417.8,533.4,2417.8z"/>
	<path d="M717.9,2167.4c5.9,3.6,11.1,14.2,16.2,28.9c-52.9,52.6-58.7,252.9-115.4,252.9c7,13.6,20.1,20.3,34.6,20.3
		c30.7,0,67.7-29.3,67.7-84.7c0-7.7-0.7-16-2.2-24.6c-1.3-7.4-2.7-15.3-4.3-23.9c20.5,22.8,45.4,25.5,63.9,67.8
		c7.2,16.2,20.8,24.9,43.2,24.9h30c-28.4-73.6-30.5-192-49.5-232C790.1,2171.6,764.9,2167.4,717.9,2167.4z M710.9,2294
		c0.2-27.8,6.3-57.8,27.3-84.2c13.1,46.7,23.1,118.1,28.5,150.2C743.8,2339.5,710.9,2333.4,710.9,2294z"/>
	<path d="M1005.2,2306.9c-6.3,0-12.9,1.3-19.4,3.8c28.9-31.9,63.7-66.9,63.7-94.8c0-34.8-48.6-49.4-81.8-49.4
		c-26,0-51.1,3.2-77.9,3.2c-8.4,0-17-0.4-25.8-1.3c7,21,12.6,85.1,12.6,145.2c0,50.6-3.9,98.5-14.2,115.4l49.7-0.2l24.9,0.2
		c-1.4-7.5-2-14.7-2-21.5c0-47.6,31-77.2,53.3-77.2c16.7,0.2,22.8,14.4,22.8,33.6c0,26.2-12,59.9-24.6,71.6
		c8.8,2.3,16.7,3.6,23.9,3.6c37.3,0,54.2-28.9,54.2-59.6C1064.6,2343.9,1040.9,2306.9,1005.2,2306.9z M929.5,2377.8
		c-1.4-23-2.9-49.7-2.9-76.1c0-34.1,2.3-67.7,10.4-91.2c7.5-22.4,21.4-36.6,32.5-36.6c9.7,0,17.4,10.8,17.4,36.4
		C986,2302.8,941.5,2305.6,929.5,2377.8z"/>
	<path d="M1419.4,2310.7c-3.1,0-6.5,0-9.9,0.4c28.9-31.8,63.9-66.9,63.9-94.8c0-34.6-49.2-49.4-80.2-49.5c-28.4,0-55.3,5-84.7,5
		c-13.5,0-27.3-1.1-42.2-4.1c25.5,14.7,35,94.2,35,163.5c0,17-0.5,33.6-1.6,48.3c-0.2,2.2-0.2,4.3-0.2,6.5
		c0,43.6,34.5,63.5,72.3,63.5c25.3,0,52.2-8.8,71.2-25.5c-19.9,27.5-49.9,38.9-82.7,38.9c-79.1,0-173.7-67.5-176.4-140.7
		c8.4-10.2,17.2-19.4,25.7-26.7c31-30.1,61.7-54.7,61.7-86.5c0-2.9-0.2-5.7-0.7-8.8c-4.1-22.3-29.3-33.2-53.1-38c1.4,4.5,2,9.2,2,14
		c0,49.4-65.5,120.6-79,192c-1.3-21.9-2.5-44.9-2.5-67.3c0-51.5,6.3-101,32.3-133c-16.3,5.2-31.4,7-45.2,7
		c-18.7,0-35.2-3.2-50.1-6.1c7.9,16,11.5,62.6,11.5,112.5c0,60.5-5.2,126-14.7,148.4h75.6c-1.4-5.9-2.2-12-2.2-18.1
		c0-24,10.4-49,24.9-70.7l-0.2,5.6c0,103.7,96.7,171.6,170.7,171.6c4.7,0,9.3-0.4,13.8-0.9c81.1-10.4,130.6-84.9,130.6-141.4
		C1485.1,2339.4,1464.8,2310.7,1419.4,2310.7z M1350.3,2301.3c0-33.9,2.5-67.1,10.4-90.4c7.5-22.4,21.4-36.8,32.7-36.8
		c9.5,0,17.4,10.9,17.4,36.6c-0.9,92.4-45.6,94.8-57.4,167.6C1351.9,2355.2,1350.3,2327.9,1350.3,2301.3z M1378,2433.2
		c-9.9,0-16.7-6.5-16.7-22.3c0-4.3,0.5-9.2,1.6-14.9c10-54.2,38.9-73.9,61.9-73.9c17.9,0,32.7,11.3,32.7,28.2
		C1457.5,2383.9,1404.3,2433.2,1378,2433.2z"/>
	<path d="M1677.3,2168.9c-9,1.6-24,2.9-39.8,2.9c-13.3,0-26.9-0.9-38.2-3.1c16.3,18.1,31.6,82.2,31.6,135.8c0,29.6-4.7,56-16.5,69.5
		c-11.8,13.6-29.3,20.3-46.1,20.3c-26.6,0-52-16.9-52-49.4c0-22.4,12-52,43.6-88.8c11.8-13.8,17.4-28.4,17.4-41.6
		c0-26.4-21.9-47.7-59.6-47.7c-8.4,0-17.6,1.1-26.9,3.1c18.5,22.1,24.4,45.8,24.4,69.5c0,32.1-10.8,64.4-16.3,93.7
		c-1.1,5.7-1.6,11.3-1.6,16.7c0,49.7,44.7,80.4,89.4,80.4c5,0,10-0.4,14.9-1.3c21-3.2,36.1-14.9,55.3-14.9c7.4,0,15.1,1.6,24,6.1
		c-5.4-7.7-7-49.2-7-96.2C1673.7,2253,1677.3,2169.4,1677.3,2168.9z"/>
	<path d="M1788.2,2166.4l-5.4,0.2c-26.7,0.7-52.6,4.3-79.3,4.3l-11.1-0.2c9.7,9.2,13.3,49.9,13.3,96.5c0,67.8-7.4,148.1-14.2,161.7
		c13.5-1.3,27.1-2.2,41.1-2.2c12.4,0,24.8,0.7,37.5,2c-4.1-3.6-5.6-9.3-5.6-16.3c9.3,10.6,20.6,15.1,32.7,15.1
		c30.5,0,65.1-28.5,79.5-56.4c11.7-22.6,17.8-49.7,17.8-76.6C1894.5,2230.1,1860.2,2166.4,1788.2,2166.4z M1802.2,2404.2
		c-6.3,5.9-12.7,9.3-18.3,9.3c-11.7,0-20.6-14-21.2-47.7l-2.5-133.3c0-42.5,8.3-58.5,19.6-58.5c1.4,0,3.1,0.2,4.5,0.7
		c33.7,11.3,53.5,67.1,53.5,122.8C1837.7,2339.2,1826.8,2380.8,1802.2,2404.2z"/>
	<path d="M2109.3,2316.6c0-34.3-33.4-50.1-66.4-50.1c-17.4,0-34.8,4.3-47,12.6c-12.7,8.4-17.9,20.3-17.9,31.9
		c0,22.1,18.7,44.3,39.3,44.3h1.4c10.2-38.6,29.1-52.2,45.4-52.2c17.2,0,31.9,14.9,31.9,31.6c0,14-10,29.4-37.3,38.8
		c-6.5,2.2-13.6,3.2-21,3.2c-41.3,0-92.4-34.3-92.4-105.5c0-8.6,0.7-17.8,2.3-27.5c3.6-21.5,11.3-29.1,21.5-29.1
		c7.9,0,17.4,4.5,28,10.4c15.6,9,30.1,12.7,43.1,12.7c35.9,0,59.6-29.3,59.6-57.4c0-8.1-1.8-16-5.9-23.2
		c-12.7,13.6-38.8,18.8-65.5,18.8c-33,0-66.9-8.1-78.1-18.5c2.5,8.4,3.6,16.2,3.6,23c0,40-35.9,58.5-44.3,107
		c-1.1,6.8-1.6,14.2-1.6,21.5c0,61.2,38.9,134.4,95.8,134.4c4.7,0,9.3-0.4,14-1.4c40-8.3,49.2-36.4,79.7-36.4
		c6.8,0,14.9,1.4,24.6,4.8c-11.5-21.2-12.7-49.9-12.7-75.6V2316.6z"/>
	<path d="M2180.7,2212c8.1,0,18.1,4.1,29.1,9.9c16.5,8.4,31.6,12,45,12c36.3,0,59-26.4,59-52.6c0-8.4-2.2-16.7-7.2-24
		c-14.5,15.1-42.9,17-42.9,17c-5,0.5-10.2,0.7-15.8,0.7c-36.4,0-80.9-10.4-89.4-17.6c3.4,9.2,4.8,17.2,4.8,24.6
		c0,36.4-34.6,54.2-40.9,99.4c-0.9,6.3-1.4,12.6-1.4,18.8c0,56.2,34.3,111.6,94.2,126.3c7.2,1.8,14.7,2.7,21.9,2.7
		c35,0,67.5-20.1,67.5-57.6c0-5.6-0.7-11.3-2.2-17.6c-17.4,9.3-34.6,14.7-50.2,14.7c-23.9,0-44.3-12-57.2-40.7
		c-4.7-10-7-20.3-7-28.7c0-10.9,4.1-18.7,12.6-18.7c5,0,11.5,2.5,19.7,8.8c19.4,14.7,39.3,23,54.7,23c16.7,0,28.2-9.5,28.2-30.7
		c0-6.6-1.3-14.4-3.6-23.5c-9.2,11.1-19.4,14.5-29.8,14.5c-14,0-28.9-6.1-43.2-8.1c-3.4-0.4-6.6-0.5-9.7-0.5
		c-27.5,0-38.9,17.4-38.9,38.9c0,7.7,1.4,15.8,4.1,23.9c-15.4-23.5-23.3-52.8-23.3-75.9C2158.8,2224.3,2167.6,2212,2180.7,2212z"/>
	<path d="M2476.4,2155.4c-39.3,0-84,17.4-111.6,17.4c-15.1,0-26.4-4.8-31.4-19.6c-6.6,14.5-9.7,27.5-9.7,38.6
		c0,27.6,18.5,43.8,43.8,43.8c22.4,0,50.1-12.7,74.8-41.6c18.3-21.2,36.4-28.5,50.6-28.5c16.3,0,27.6,10,27.6,20.6
		c0,11.7-13.5,23.9-48.3,23.9c-111.3,0-60.5,170.1-94,222.5h93.7c-10.8-38.2-23.7-96.7-23.7-141.4c0-36.1,8.4-63.3,33-63.3
		c36.4,0,58.5-19.4,58.5-38C2539.8,2172.3,2520.8,2155.4,2476.4,2155.4z"/>
</g>
</svg>
